<svg xmlns="http://www.w3.org/2000/svg" xmlns:xlink="http://www.w3.org/1999/xlink" width="500" zoomAndPan="magnify" viewBox="0 0 375 374.999991" height="500" preserveAspectRatio="xMidYMid meet" version="1.0"><defs><clipPath id="065ee52b17"><path d="M 60 61 L 323 61 L 323 323.351562 L 60 323.351562 Z M 60 61 " clip-rule="nonzero"/></clipPath></defs><g clip-path="url(#065ee52b17)"><path fill="#feffff" d="M 320.722656 294.632812 C 319.664062 292.171875 318.195312 289.984375 316.3125 288.074219 C 305.617188 277.242188 294.582031 266.339844 283.917969 255.777344 C 280.050781 251.964844 276.179688 248.140625 272.308594 244.304688 C 270.875 242.808594 269.199219 241.660156 267.285156 240.859375 C 265.375 240.058594 263.382812 239.671875 261.308594 239.695312 L 261.210938 239.695312 C 260.128906 239.617188 259.210938 239.191406 258.453125 238.417969 C 252.527344 231.890625 246.570312 225.195312 240.820312 218.703125 L 236.613281 213.957031 C 234.832031 211.972656 233.046875 209.953125 231.269531 207.9375 L 229.042969 205.414062 C 231.277344 202.125 233.289062 198.703125 235.082031 195.15625 C 236.871094 191.605469 238.429688 187.957031 239.75 184.207031 C 241.074219 180.457031 242.148438 176.636719 242.980469 172.75 C 243.808594 168.859375 244.386719 164.9375 244.710938 160.972656 C 245.035156 157.011719 245.105469 153.042969 244.917969 149.070312 C 244.730469 145.101562 244.289062 141.15625 243.59375 137.242188 C 242.902344 133.328125 241.957031 129.472656 240.765625 125.679688 C 239.578125 121.886719 238.148438 118.1875 236.480469 114.578125 C 233.117188 107.265625 228.859375 100.523438 223.710938 94.34375 C 218.558594 88.164062 212.6875 82.761719 206.101562 78.140625 C 203.878906 76.570312 201.585938 75.101562 199.234375 73.734375 C 196.878906 72.367188 194.464844 71.105469 192 69.949219 C 189.53125 68.796875 187.019531 67.753906 184.460938 66.824219 C 181.898438 65.894531 179.304688 65.078125 176.671875 64.375 C 174.039062 63.675781 171.382812 63.09375 168.699219 62.628906 C 166.015625 62.164062 163.316406 61.816406 160.601562 61.59375 C 157.886719 61.367188 155.167969 61.261719 152.445312 61.277344 C 149.722656 61.292969 147.003906 61.429688 144.292969 61.6875 C 141.582031 61.941406 138.886719 62.320312 136.207031 62.816406 C 133.53125 63.3125 130.878906 63.925781 128.253906 64.65625 C 125.632812 65.386719 123.046875 66.230469 120.496094 67.191406 C 117.949219 68.152344 115.445312 69.222656 112.992188 70.40625 C 110.539062 71.585938 108.144531 72.875 105.804688 74.269531 C 103.464844 75.664062 101.191406 77.160156 98.984375 78.757812 C 96.777344 80.355469 94.644531 82.042969 92.589844 83.828125 C 90.53125 85.617188 88.558594 87.488281 86.667969 89.449219 C 84.777344 91.410156 82.976562 93.449219 81.269531 95.570312 C 79.558594 97.691406 77.945312 99.882812 76.429688 102.144531 C 74.914062 104.40625 73.503906 106.734375 72.195312 109.121094 C 70.886719 111.511719 69.683594 113.953125 68.59375 116.449219 C 67.5 118.941406 66.519531 121.480469 65.652344 124.0625 C 64.785156 126.644531 64.035156 129.257812 63.398438 131.910156 C 62.765625 134.558594 62.25 137.226562 61.851562 139.921875 C 61.453125 142.617188 61.171875 145.324219 61.015625 148.042969 C 60.855469 150.761719 60.820312 153.480469 60.902344 156.203125 C 60.984375 158.925781 61.191406 161.640625 61.511719 164.34375 C 61.835938 167.046875 62.28125 169.734375 62.84375 172.398438 C 63.402344 175.0625 64.082031 177.699219 64.878906 180.300781 C 65.675781 182.90625 66.582031 185.472656 67.605469 187.996094 C 68.628906 190.519531 69.761719 192.992188 71.003906 195.417969 C 72.25 197.839844 73.597656 200.203125 75.046875 202.507812 C 76.5 204.8125 78.050781 207.046875 79.703125 209.214844 C 82.894531 213.550781 86.453125 217.5625 90.378906 221.246094 C 94.304688 224.933594 98.527344 228.234375 103.054688 231.148438 C 107.582031 234.0625 112.335938 236.542969 117.316406 238.589844 C 122.296875 240.636719 127.421875 242.21875 132.691406 243.328125 C 135.988281 244.085938 139.320312 244.65625 142.679688 245.042969 C 146.042969 245.429688 149.417969 245.625 152.800781 245.636719 C 156.1875 245.644531 159.558594 245.46875 162.925781 245.101562 C 166.289062 244.738281 169.621094 244.1875 172.925781 243.449219 C 176.230469 242.710938 179.480469 241.792969 182.683594 240.695312 C 185.882812 239.597656 189.011719 238.324219 192.070312 236.875 C 195.132812 235.425781 198.101562 233.8125 200.980469 232.035156 C 203.859375 230.257812 206.632812 228.324219 209.296875 226.238281 C 209.46875 226.40625 209.632812 226.542969 209.769531 226.675781 L 214.378906 231.925781 C 222.316406 240.839844 230.226562 249.722656 238.0625 258.703125 C 238.613281 259.480469 238.871094 260.34375 238.835938 261.292969 C 238.792969 262.410156 238.867188 263.519531 239.066406 264.621094 C 239.261719 265.722656 239.578125 266.789062 240.011719 267.816406 C 240.445312 268.847656 240.984375 269.820312 241.632812 270.734375 C 242.277344 271.644531 243.015625 272.476562 243.847656 273.222656 C 258.28125 287.488281 271.640625 300.84375 284.65625 314.035156 C 286.644531 316.34375 288.9375 318.296875 291.53125 319.890625 C 294.128906 321.488281 296.90625 322.652344 299.863281 323.386719 L 305.148438 323.386719 C 306.507812 323.148438 307.832031 322.78125 309.121094 322.285156 C 310.410156 321.792969 311.640625 321.179688 312.8125 320.445312 C 313.980469 319.714844 315.070312 318.875 316.082031 317.933594 C 317.089844 316.988281 317.996094 315.960938 318.808594 314.839844 C 319.867188 313.289062 320.742188 311.640625 321.429688 309.894531 C 322.257812 307.394531 322.613281 304.832031 322.488281 302.199219 C 322.367188 299.570312 321.777344 297.046875 320.722656 294.632812 Z M 250.84375 258.332031 C 251.484375 257.695312 252.09375 257.054688 252.730469 256.449219 C 254.308594 254.800781 255.957031 253.117188 257.675781 251.570312 C 258.386719 250.988281 259.160156 250.503906 260 250.125 C 260.335938 249.921875 260.707031 249.722656 261.074219 249.519531 C 261.53125 249.78125 262.003906 250.015625 262.484375 250.226562 C 263.535156 250.636719 264.488281 251.210938 265.347656 251.941406 C 278.097656 264.589844 291.992188 278.453125 309.046875 295.578125 C 310.15625 296.628906 311.019531 297.855469 311.640625 299.257812 C 312.257812 300.65625 312.582031 302.121094 312.613281 303.652344 C 312.59375 304.90625 312.335938 306.109375 311.839844 307.261719 C 311.347656 308.417969 310.652344 309.433594 309.757812 310.3125 C 309.246094 310.792969 308.695312 311.21875 308.101562 311.589844 C 307.507812 311.964844 306.882812 312.273438 306.226562 312.523438 C 305.570312 312.773438 304.898438 312.957031 304.207031 313.074219 C 303.515625 313.191406 302.820312 313.242188 302.121094 313.222656 C 301.417969 313.207031 300.726562 313.117188 300.042969 312.964844 C 299.359375 312.808594 298.695312 312.589844 298.054688 312.304688 C 297.414062 312.023438 296.808594 311.679688 296.234375 311.273438 C 295.660156 310.871094 295.132812 310.414062 294.648438 309.910156 C 280.011719 295.328125 265.402344 280.71875 250.8125 266.070312 C 250.539062 265.828125 250.300781 265.554688 250.085938 265.261719 C 249.871094 264.964844 249.691406 264.648438 249.542969 264.316406 C 249.398438 263.980469 249.285156 263.636719 249.210938 263.277344 C 249.136719 262.921875 249.101562 262.558594 249.101562 262.195312 C 249.105469 261.832031 249.144531 261.46875 249.222656 261.113281 C 249.300781 260.757812 249.414062 260.410156 249.5625 260.078125 C 249.714844 259.746094 249.894531 259.433594 250.113281 259.140625 C 250.328125 258.84375 250.574219 258.578125 250.84375 258.332031 Z M 234.460938 154.007812 C 234.460938 155.335938 234.425781 156.664062 234.359375 157.992188 C 234.296875 159.324219 234.199219 160.648438 234.066406 161.972656 C 233.9375 163.296875 233.773438 164.613281 233.578125 165.929688 C 233.382812 167.246094 233.15625 168.554688 232.894531 169.859375 C 232.636719 171.164062 232.34375 172.460938 232.023438 173.753906 C 231.699219 175.042969 231.34375 176.324219 230.957031 177.597656 C 230.570312 178.871094 230.15625 180.132812 229.707031 181.382812 C 229.257812 182.636719 228.78125 183.878906 228.273438 185.105469 C 227.765625 186.335938 227.226562 187.550781 226.65625 188.753906 C 226.089844 189.957031 225.492188 191.144531 224.867188 192.316406 C 224.238281 193.492188 223.585938 194.648438 222.902344 195.789062 C 222.21875 196.929688 221.507812 198.054688 220.769531 199.160156 C 220.03125 200.265625 219.265625 201.355469 218.476562 202.421875 C 217.683594 203.492188 216.867188 204.539062 216.023438 205.570312 C 215.179688 206.597656 214.3125 207.605469 213.421875 208.59375 C 212.527344 209.578125 211.613281 210.542969 210.675781 211.484375 C 209.734375 212.425781 208.773438 213.34375 207.789062 214.238281 C 206.804688 215.132812 205.796875 216 204.769531 216.847656 C 203.742188 217.691406 202.695312 218.511719 201.628906 219.304688 C 200.5625 220.097656 199.476562 220.863281 198.371094 221.605469 C 197.265625 222.34375 196.144531 223.058594 195.003906 223.742188 C 193.863281 224.429688 192.707031 225.085938 191.535156 225.714844 C 190.363281 226.34375 189.179688 226.945312 187.976562 227.515625 C 186.777344 228.085938 185.5625 228.625 184.332031 229.136719 C 183.105469 229.648438 181.867188 230.128906 180.613281 230.578125 C 179.363281 231.03125 178.101562 231.449219 176.828125 231.835938 C 175.558594 232.226562 174.277344 232.582031 172.988281 232.910156 C 171.699219 233.234375 170.402344 233.527344 169.097656 233.792969 C 167.792969 234.054688 166.484375 234.285156 165.167969 234.480469 C 163.851562 234.679688 162.535156 234.84375 161.210938 234.980469 C 159.886719 235.113281 158.5625 235.214844 157.234375 235.28125 C 155.90625 235.351562 154.574219 235.386719 153.246094 235.390625 L 152.945312 235.390625 C 151.617188 235.382812 150.289062 235.347656 148.964844 235.277344 C 147.636719 235.207031 146.316406 235.101562 144.992188 234.96875 C 143.671875 234.832031 142.355469 234.667969 141.042969 234.46875 C 139.730469 234.269531 138.425781 234.035156 137.125 233.773438 C 135.820312 233.511719 134.527344 233.214844 133.242188 232.890625 C 131.953125 232.5625 130.675781 232.207031 129.40625 231.816406 C 128.136719 231.425781 126.878906 231.007812 125.628906 230.558594 C 124.382812 230.105469 123.144531 229.625 121.917969 229.113281 C 120.695312 228.605469 119.480469 228.0625 118.28125 227.492188 C 117.082031 226.921875 115.898438 226.324219 114.730469 225.695312 C 113.5625 225.066406 112.40625 224.410156 111.269531 223.726562 C 110.132812 223.039062 109.011719 222.328125 107.910156 221.589844 C 106.808594 220.851562 105.722656 220.082031 104.660156 219.292969 C 103.59375 218.5 102.546875 217.679688 101.523438 216.835938 C 100.496094 215.992188 99.492188 215.125 98.511719 214.234375 C 97.527344 213.339844 96.570312 212.425781 95.628906 211.484375 C 94.691406 210.546875 93.777344 209.582031 92.886719 208.597656 C 91.996094 207.613281 91.128906 206.609375 90.289062 205.582031 C 89.445312 204.554688 88.632812 203.507812 87.839844 202.441406 C 87.050781 201.375 86.285156 200.289062 85.550781 199.1875 C 84.8125 198.082031 84.101562 196.960938 83.417969 195.824219 C 82.738281 194.683594 82.082031 193.53125 81.457031 192.359375 C 80.832031 191.1875 80.234375 190.003906 79.664062 188.804688 C 79.097656 187.601562 78.558594 186.390625 78.050781 185.164062 C 77.542969 183.9375 77.0625 182.699219 76.613281 181.449219 C 76.167969 180.199219 75.75 178.941406 75.363281 177.671875 C 74.976562 176.398438 74.621094 175.121094 74.296875 173.835938 C 73.972656 172.546875 73.679688 171.253906 73.417969 169.949219 C 73.160156 168.648438 72.929688 167.339844 72.734375 166.027344 C 72.535156 164.714844 72.371094 163.398438 72.238281 162.078125 C 72.105469 160.757812 72.007812 159.433594 71.9375 158.109375 C 71.871094 156.78125 71.835938 155.457031 71.832031 154.128906 C 71.832031 152.796875 71.863281 151.46875 71.929688 150.140625 C 71.992188 148.8125 72.089844 147.484375 72.21875 146.164062 C 72.347656 144.839844 72.511719 143.519531 72.707031 142.203125 C 72.898438 140.886719 73.125 139.578125 73.382812 138.273438 C 73.644531 136.96875 73.933594 135.671875 74.253906 134.382812 C 74.578125 133.089844 74.929688 131.808594 75.316406 130.535156 C 75.703125 129.265625 76.117188 128 76.566406 126.75 C 77.011719 125.496094 77.488281 124.253906 77.996094 123.027344 C 78.503906 121.796875 79.042969 120.582031 79.609375 119.378906 C 80.175781 118.175781 80.773438 116.988281 81.398438 115.816406 C 82.027344 114.640625 82.679688 113.484375 83.363281 112.34375 C 84.046875 111.199219 84.753906 110.078125 85.492188 108.96875 C 86.230469 107.863281 86.996094 106.777344 87.785156 105.707031 C 88.578125 104.636719 89.394531 103.589844 90.238281 102.558594 C 91.078125 101.53125 91.945312 100.523438 92.839844 99.539062 C 93.730469 98.550781 94.644531 97.585938 95.585938 96.644531 C 96.523438 95.703125 97.484375 94.785156 98.46875 93.890625 C 99.453125 92.996094 100.460938 92.128906 101.488281 91.285156 C 102.515625 90.4375 103.5625 89.617188 104.628906 88.824219 C 105.695312 88.03125 106.78125 87.265625 107.886719 86.523438 C 108.992188 85.785156 110.113281 85.070312 111.253906 84.386719 C 112.390625 83.699219 113.546875 83.042969 114.71875 82.414062 C 115.890625 81.785156 117.078125 81.1875 118.28125 80.617188 C 119.480469 80.046875 120.695312 79.507812 121.925781 78.996094 C 123.152344 78.484375 124.390625 78.003906 125.644531 77.554688 C 126.894531 77.105469 128.15625 76.683594 129.429688 76.296875 C 130.699219 75.910156 131.980469 75.554688 133.269531 75.226562 C 134.558594 74.902344 135.855469 74.609375 137.160156 74.347656 C 138.464844 74.085938 139.773438 73.855469 141.089844 73.660156 C 142.402344 73.460938 143.722656 73.296875 145.046875 73.164062 C 146.371094 73.03125 147.695312 72.929688 149.023438 72.863281 C 150.351562 72.796875 151.679688 72.761719 153.011719 72.757812 L 153.078125 72.757812 C 154.410156 72.746094 155.746094 72.769531 157.078125 72.820312 C 158.410156 72.875 159.742188 72.964844 161.070312 73.085938 C 162.398438 73.203125 163.722656 73.359375 165.042969 73.542969 C 166.363281 73.730469 167.679688 73.949219 168.988281 74.199219 C 170.296875 74.449219 171.601562 74.734375 172.894531 75.050781 C 174.191406 75.367188 175.480469 75.714844 176.757812 76.09375 C 178.035156 76.472656 179.304688 76.882812 180.5625 77.328125 C 181.820312 77.769531 183.066406 78.242188 184.300781 78.746094 C 185.535156 79.253906 186.757812 79.785156 187.964844 80.351562 C 189.175781 80.917969 190.367188 81.511719 191.546875 82.136719 C 192.726562 82.761719 193.886719 83.414062 195.035156 84.09375 C 196.179688 84.777344 197.308594 85.488281 198.417969 86.222656 C 199.53125 86.960938 200.621094 87.726562 201.695312 88.519531 C 202.769531 89.3125 203.820312 90.128906 204.855469 90.972656 C 205.886719 91.816406 206.898438 92.6875 207.886719 93.582031 C 208.875 94.476562 209.84375 95.394531 210.785156 96.335938 C 211.730469 97.277344 212.652344 98.242188 213.546875 99.230469 C 214.441406 100.21875 215.3125 101.230469 216.160156 102.261719 C 217.003906 103.292969 217.824219 104.34375 218.621094 105.414062 C 219.414062 106.488281 220.179688 107.578125 220.917969 108.6875 C 221.660156 109.796875 222.371094 110.925781 223.054688 112.070312 C 223.738281 113.214844 224.394531 114.375 225.019531 115.554688 C 225.644531 116.730469 226.242188 117.921875 226.808594 119.132812 C 227.375 120.339844 227.914062 121.558594 228.417969 122.792969 C 228.925781 124.027344 229.402344 125.273438 229.847656 126.527344 C 230.289062 127.785156 230.703125 129.054688 231.085938 130.332031 C 231.46875 131.609375 231.816406 132.898438 232.136719 134.191406 C 232.453125 135.488281 232.738281 136.789062 232.992188 138.097656 C 233.246094 139.410156 233.46875 140.722656 233.65625 142.042969 C 233.84375 143.363281 234 144.6875 234.121094 146.015625 C 234.242188 147.34375 234.332031 148.675781 234.390625 150.007812 C 234.445312 151.339844 234.46875 152.671875 234.460938 154.007812 Z M 222.421875 214.195312 L 249.777344 244.875 L 244.089844 250.191406 L 217.109375 219.914062 Z M 153.347656 79.757812 L 153.078125 79.757812 C 151.863281 79.753906 150.644531 79.785156 149.429688 79.84375 C 148.214844 79.902344 147.003906 79.992188 145.792969 80.109375 C 144.582031 80.230469 143.375 80.378906 142.171875 80.554688 C 140.96875 80.734375 139.773438 80.941406 138.578125 81.175781 C 137.386719 81.414062 136.199219 81.679688 135.019531 81.976562 C 133.839844 82.269531 132.667969 82.59375 131.503906 82.945312 C 130.339844 83.300781 129.183594 83.679688 128.039062 84.089844 C 126.894531 84.5 125.757812 84.933594 124.636719 85.398438 C 123.511719 85.867188 122.398438 86.359375 121.300781 86.878906 C 120.199219 87.398438 119.113281 87.941406 118.039062 88.515625 C 116.96875 89.089844 115.910156 89.6875 114.867188 90.3125 C 113.824219 90.9375 112.796875 91.585938 111.785156 92.261719 C 110.773438 92.9375 109.777344 93.636719 108.800781 94.359375 C 107.824219 95.085938 106.863281 95.832031 105.921875 96.605469 C 104.984375 97.375 104.0625 98.167969 103.160156 98.984375 C 102.257812 99.800781 101.378906 100.640625 100.515625 101.5 C 99.65625 102.359375 98.816406 103.238281 98 104.140625 C 97.183594 105.039062 96.390625 105.960938 95.617188 106.902344 C 94.84375 107.839844 94.097656 108.800781 93.371094 109.777344 C 92.648438 110.753906 91.945312 111.746094 91.269531 112.757812 C 90.59375 113.769531 89.941406 114.796875 89.316406 115.839844 C 88.691406 116.882812 88.089844 117.9375 87.519531 119.011719 C 86.945312 120.082031 86.398438 121.167969 85.875 122.269531 C 85.355469 123.367188 84.863281 124.480469 84.398438 125.601562 C 83.929688 126.726562 83.492188 127.859375 83.082031 129.003906 C 82.671875 130.148438 82.289062 131.304688 81.9375 132.46875 C 81.582031 133.632812 81.257812 134.804688 80.960938 135.984375 C 80.664062 137.164062 80.398438 138.347656 80.160156 139.542969 C 79.921875 140.734375 79.714844 141.933594 79.535156 143.136719 C 79.355469 144.339844 79.207031 145.546875 79.085938 146.757812 C 78.96875 147.964844 78.878906 149.179688 78.816406 150.394531 C 78.757812 151.609375 78.726562 152.824219 78.726562 154.039062 C 78.726562 155.257812 78.753906 156.472656 78.816406 157.6875 C 78.875 158.902344 78.960938 160.113281 79.082031 161.324219 C 79.199219 162.535156 79.347656 163.742188 79.527344 164.945312 C 79.703125 166.148438 79.910156 167.347656 80.148438 168.539062 C 80.386719 169.734375 80.652344 170.917969 80.945312 172.097656 C 81.242188 173.277344 81.5625 174.449219 81.917969 175.613281 C 82.269531 176.777344 82.648438 177.933594 83.058594 179.078125 C 83.46875 180.222656 83.90625 181.359375 84.371094 182.484375 C 84.835938 183.605469 85.328125 184.71875 85.847656 185.816406 C 86.367188 186.917969 86.914062 188.003906 87.484375 189.078125 C 88.058594 190.148438 88.65625 191.207031 89.28125 192.25 C 89.90625 193.296875 90.558594 194.324219 91.234375 195.335938 C 91.90625 196.347656 92.609375 197.339844 93.332031 198.316406 C 94.054688 199.296875 94.804688 200.253906 95.574219 201.195312 C 96.347656 202.136719 97.140625 203.054688 97.957031 203.957031 C 98.773438 204.859375 99.609375 205.738281 100.46875 206.601562 C 101.328125 207.460938 102.210938 208.300781 103.109375 209.117188 C 104.011719 209.933594 104.933594 210.730469 105.871094 211.5 C 106.8125 212.273438 107.769531 213.019531 108.746094 213.746094 C 109.722656 214.472656 110.714844 215.171875 111.726562 215.847656 C 112.738281 216.523438 113.765625 217.175781 114.808594 217.800781 C 115.851562 218.425781 116.910156 219.027344 117.980469 219.601562 C 119.054688 220.175781 120.140625 220.722656 121.238281 221.242188 C 122.339844 221.761719 123.449219 222.253906 124.574219 222.722656 C 125.695312 223.1875 126.832031 223.625 127.976562 224.035156 C 129.121094 224.445312 130.273438 224.828125 131.4375 225.179688 C 132.601562 225.535156 133.773438 225.859375 134.953125 226.15625 C 136.132812 226.453125 137.320312 226.71875 138.511719 226.957031 C 139.707031 227.195312 140.902344 227.402344 142.105469 227.582031 C 143.308594 227.761719 144.515625 227.910156 145.726562 228.03125 C 146.9375 228.148438 148.148438 228.238281 149.363281 228.300781 C 150.578125 228.359375 151.792969 228.390625 153.011719 228.390625 L 153.550781 228.390625 C 154.765625 228.386719 155.976562 228.351562 157.1875 228.289062 C 158.398438 228.222656 159.605469 228.128906 160.8125 228.003906 C 162.019531 227.882812 163.21875 227.730469 164.417969 227.546875 C 165.617188 227.363281 166.808594 227.152344 168 226.910156 C 169.1875 226.671875 170.367188 226.402344 171.542969 226.101562 C 172.71875 225.804688 173.886719 225.476562 175.042969 225.121094 C 176.203125 224.765625 177.351562 224.378906 178.492188 223.96875 C 179.632812 223.554688 180.761719 223.117188 181.878906 222.648438 C 183 222.179688 184.105469 221.6875 185.199219 221.164062 C 186.292969 220.640625 187.375 220.09375 188.441406 219.519531 C 189.511719 218.945312 190.5625 218.34375 191.601562 217.71875 C 192.640625 217.089844 193.660156 216.441406 194.667969 215.765625 C 195.671875 215.085938 196.664062 214.386719 197.632812 213.664062 C 198.605469 212.9375 199.558594 212.191406 200.496094 211.417969 C 201.429688 210.648438 202.347656 209.851562 203.242188 209.035156 C 204.136719 208.21875 205.015625 207.382812 205.871094 206.523438 C 206.726562 205.664062 207.558594 204.785156 208.371094 203.882812 C 209.183594 202.984375 209.972656 202.066406 210.738281 201.125 C 211.507812 200.1875 212.25 199.230469 212.972656 198.253906 C 213.691406 197.28125 214.386719 196.289062 215.058594 195.277344 C 215.730469 194.269531 216.378906 193.246094 217 192.203125 C 217.621094 191.164062 218.214844 190.109375 218.785156 189.039062 C 219.355469 187.96875 219.898438 186.882812 220.417969 185.789062 C 220.933594 184.691406 221.421875 183.582031 221.886719 182.460938 C 222.347656 181.339844 222.78125 180.210938 223.1875 179.066406 C 223.597656 177.925781 223.976562 176.773438 224.324219 175.613281 C 224.675781 174.453125 225 173.285156 225.292969 172.109375 C 225.585938 170.933594 225.851562 169.75 226.085938 168.558594 C 226.320312 167.371094 226.527344 166.175781 226.703125 164.976562 C 226.882812 163.777344 227.027344 162.574219 227.148438 161.367188 C 227.265625 160.160156 227.351562 158.953125 227.414062 157.742188 C 227.472656 156.53125 227.5 155.320312 227.5 154.105469 C 227.496094 152.894531 227.464844 151.679688 227.40625 150.46875 C 227.34375 149.253906 227.25 148.042969 227.132812 146.835938 C 227.011719 145.628906 226.859375 144.421875 226.679688 143.222656 C 226.5 142.023438 226.292969 140.828125 226.054688 139.636719 C 225.816406 138.445312 225.550781 137.261719 225.253906 136.082031 C 224.957031 134.90625 224.632812 133.738281 224.277344 132.574219 C 223.925781 131.414062 223.542969 130.261719 223.136719 129.117188 C 222.726562 127.976562 222.289062 126.84375 221.824219 125.722656 C 221.359375 124.597656 220.867188 123.488281 220.347656 122.390625 C 219.828125 121.292969 219.28125 120.210938 218.710938 119.140625 C 218.136719 118.070312 217.539062 117.011719 216.917969 115.96875 C 216.292969 114.929688 215.644531 113.902344 214.96875 112.894531 C 214.296875 111.882812 213.597656 110.890625 212.875 109.914062 C 212.152344 108.9375 211.40625 107.980469 210.636719 107.042969 C 209.867188 106.101562 209.074219 105.183594 208.261719 104.28125 C 207.445312 103.382812 206.613281 102.5 205.753906 101.640625 C 204.898438 100.78125 204.019531 99.945312 203.121094 99.128906 C 202.222656 98.3125 201.304688 97.515625 200.367188 96.746094 C 199.429688 95.972656 198.472656 95.222656 197.5 94.5 C 196.527344 93.773438 195.535156 93.074219 194.527344 92.394531 C 193.519531 91.71875 192.496094 91.066406 191.457031 90.441406 C 190.414062 89.816406 189.359375 89.214844 188.292969 88.640625 C 187.222656 88.0625 186.140625 87.515625 185.042969 86.992188 C 183.945312 86.472656 182.839844 85.976562 181.71875 85.507812 C 180.597656 85.039062 179.46875 84.601562 178.324219 84.1875 C 177.183594 83.773438 176.03125 83.390625 174.871094 83.035156 C 173.710938 82.679688 172.542969 82.351562 171.363281 82.050781 C 170.1875 81.753906 169.003906 81.480469 167.816406 81.242188 C 166.625 81 165.429688 80.789062 164.230469 80.605469 C 163.027344 80.421875 161.824219 80.269531 160.617188 80.144531 C 159.410156 80.019531 158.199219 79.925781 156.988281 79.863281 C 155.773438 79.796875 154.5625 79.761719 153.347656 79.757812 Z M 153.246094 218.0625 L 153.078125 218.0625 C 152.03125 218.0625 150.988281 218.035156 149.941406 217.980469 C 148.898438 217.929688 147.855469 217.851562 146.8125 217.746094 C 145.773438 217.644531 144.734375 217.515625 143.699219 217.359375 C 142.667969 217.207031 141.636719 217.027344 140.609375 216.820312 C 139.585938 216.617188 138.566406 216.386719 137.550781 216.132812 C 136.535156 215.875 135.527344 215.597656 134.527344 215.292969 C 133.527344 214.988281 132.535156 214.660156 131.550781 214.308594 C 130.566406 213.953125 129.589844 213.578125 128.625 213.175781 C 127.65625 212.777344 126.703125 212.351562 125.757812 211.902344 C 124.8125 211.457031 123.878906 210.984375 122.957031 210.492188 C 122.03125 210 121.125 209.484375 120.226562 208.945312 C 119.328125 208.40625 118.445312 207.847656 117.578125 207.265625 C 116.707031 206.683594 115.851562 206.082031 115.011719 205.460938 C 114.171875 204.835938 113.347656 204.195312 112.539062 203.53125 C 111.730469 202.867188 110.9375 202.183594 110.164062 201.480469 C 109.386719 200.777344 108.632812 200.058594 107.890625 199.320312 C 107.152344 198.578125 106.429688 197.824219 105.726562 197.046875 C 105.023438 196.273438 104.339844 195.480469 103.675781 194.671875 C 103.015625 193.863281 102.371094 193.039062 101.746094 192.199219 C 101.125 191.359375 100.519531 190.507812 99.9375 189.636719 C 99.355469 188.769531 98.796875 187.886719 98.257812 186.988281 C 97.71875 186.089844 97.203125 185.183594 96.710938 184.261719 C 96.21875 183.339844 95.746094 182.40625 95.296875 181.460938 C 94.851562 180.515625 94.425781 179.558594 94.023438 178.59375 C 93.621094 177.625 93.246094 176.652344 92.890625 175.667969 C 92.539062 174.683594 92.210938 173.691406 91.90625 172.691406 C 91.601562 171.6875 91.320312 170.683594 91.0625 169.667969 C 90.808594 168.652344 90.578125 167.632812 90.371094 166.609375 C 90.167969 165.582031 89.988281 164.550781 89.832031 163.519531 C 89.675781 162.484375 89.546875 161.445312 89.445312 160.40625 C 89.339844 159.363281 89.261719 158.320312 89.207031 157.277344 C 89.15625 156.230469 89.128906 155.1875 89.125 154.140625 C 89.128906 152.042969 89.238281 149.953125 89.445312 147.867188 C 89.65625 145.78125 89.964844 143.710938 90.375 141.65625 C 90.789062 139.601562 91.300781 137.570312 91.910156 135.566406 C 92.519531 133.558594 93.226562 131.589844 94.03125 129.652344 C 94.832031 127.714844 95.730469 125.824219 96.71875 123.976562 C 97.707031 122.128906 98.78125 120.332031 99.945312 118.589844 C 101.109375 116.84375 102.355469 115.164062 103.6875 113.542969 C 105.015625 111.921875 106.417969 110.367188 107.898438 108.882812 C 109.378906 107.398438 110.929688 105.992188 112.546875 104.660156 C 114.167969 103.328125 115.847656 102.078125 117.585938 100.910156 C 119.328125 99.742188 121.121094 98.664062 122.96875 97.671875 C 124.816406 96.679688 126.707031 95.777344 128.640625 94.972656 C 130.574219 94.164062 132.542969 93.453125 134.546875 92.839844 C 136.550781 92.226562 138.582031 91.710938 140.636719 91.292969 C 142.691406 90.878906 144.761719 90.5625 146.847656 90.351562 C 148.929688 90.136719 151.023438 90.027344 153.117188 90.015625 C 157.296875 89.988281 161.441406 90.371094 165.542969 91.167969 C 169.648438 91.964844 173.632812 93.15625 177.5 94.746094 C 181.367188 96.332031 185.039062 98.285156 188.515625 100.605469 C 191.996094 102.925781 195.210938 105.5625 198.164062 108.519531 C 199.28125 109.628906 200.359375 110.773438 201.394531 111.960938 C 202.429688 113.148438 203.417969 114.371094 204.363281 115.632812 C 205.304688 116.890625 206.203125 118.183594 207.050781 119.511719 C 207.902344 120.835938 208.699219 122.191406 209.449219 123.578125 C 210.199219 124.960938 210.894531 126.371094 211.539062 127.808594 C 212.183594 129.246094 212.773438 130.703125 213.3125 132.183594 C 213.851562 133.664062 214.332031 135.160156 214.757812 136.675781 C 215.183594 138.191406 215.554688 139.71875 215.871094 141.261719 C 216.183594 142.804688 216.441406 144.359375 216.640625 145.917969 C 216.839844 147.480469 216.980469 149.046875 217.066406 150.621094 C 217.148438 152.191406 217.175781 153.765625 217.140625 155.339844 C 217.109375 156.914062 217.019531 158.484375 216.871094 160.050781 C 216.722656 161.621094 216.519531 163.179688 216.253906 164.730469 C 215.992188 166.285156 215.671875 167.824219 215.296875 169.351562 C 214.917969 170.882812 214.484375 172.394531 213.996094 173.890625 C 213.507812 175.386719 212.964844 176.863281 212.367188 178.320312 C 211.769531 179.777344 211.121094 181.210938 210.417969 182.617188 C 209.714844 184.027344 208.960938 185.410156 208.15625 186.761719 C 207.351562 188.113281 206.496094 189.4375 205.59375 190.726562 C 204.691406 192.015625 203.742188 193.269531 202.75 194.492188 C 201.753906 195.710938 200.714844 196.894531 199.632812 198.035156 C 198.550781 199.179688 197.425781 200.28125 196.265625 201.34375 C 195.101562 202.402344 193.898438 203.417969 192.660156 204.390625 C 191.421875 205.363281 190.148438 206.289062 188.84375 207.167969 C 187.535156 208.046875 186.199219 208.875 184.832031 209.652344 C 183.464844 210.433594 182.066406 211.160156 180.648438 211.835938 C 179.226562 212.515625 177.78125 213.136719 176.3125 213.707031 C 174.84375 214.277344 173.359375 214.792969 171.851562 215.253906 C 170.347656 215.710938 168.828125 216.117188 167.292969 216.464844 C 165.757812 216.8125 164.210938 217.105469 162.652344 217.339844 C 161.097656 217.574219 159.53125 217.75 157.960938 217.867188 C 156.394531 217.984375 154.820312 218.046875 153.246094 218.050781 Z M 205.292969 151.246094 C 203.8125 149.765625 202.363281 148.355469 200.886719 146.976562 C 197.804688 144.039062 194.484375 141.410156 190.917969 139.089844 C 187.351562 136.773438 183.601562 134.800781 179.667969 133.179688 C 175.734375 131.554688 171.6875 130.308594 167.523438 129.4375 C 163.355469 128.566406 159.148438 128.089844 154.894531 128 C 151.097656 127.847656 147.3125 128.015625 143.542969 128.507812 C 139.773438 128.996094 136.070312 129.800781 132.4375 130.921875 C 128.804688 132.042969 125.292969 133.460938 121.902344 135.179688 C 118.507812 136.898438 115.289062 138.890625 112.234375 141.15625 C 109.222656 143.492188 106.40625 146.046875 103.792969 148.824219 C 102.816406 149.800781 101.839844 150.777344 100.863281 151.71875 C 100.703125 151.855469 100.558594 152.007812 100.433594 152.179688 C 100.308594 152.347656 100.199219 152.527344 100.113281 152.722656 C 100.027344 152.914062 99.964844 153.113281 99.921875 153.320312 C 99.882812 153.527344 99.863281 153.734375 99.867188 153.945312 C 99.875 154.15625 99.902344 154.367188 99.953125 154.570312 C 100.003906 154.777344 100.078125 154.972656 100.171875 155.160156 C 100.269531 155.347656 100.382812 155.523438 100.515625 155.6875 C 100.652344 155.851562 100.800781 155.996094 100.96875 156.125 C 106.269531 162.328125 112.492188 167.398438 119.636719 171.332031 C 124.917969 174.210938 130.464844 176.414062 136.28125 177.945312 C 142.097656 179.472656 148.011719 180.28125 154.023438 180.371094 C 157.648438 180.308594 161.246094 179.972656 164.820312 179.367188 C 168.394531 178.761719 171.902344 177.890625 175.34375 176.757812 C 178.785156 175.621094 182.125 174.234375 185.355469 172.597656 C 188.589844 170.957031 191.679688 169.085938 194.628906 166.980469 C 199.855469 163.71875 204.164062 159.511719 207.546875 154.363281 L 207.882812 153.792969 Z M 163.980469 139.203125 C 169.539062 140.253906 174.84375 142.050781 179.894531 144.589844 C 184.949219 147.128906 189.558594 150.3125 193.71875 154.140625 C 189.507812 157.9375 184.855469 161.089844 179.769531 163.601562 C 174.683594 166.109375 169.351562 167.878906 163.777344 168.910156 C 164.933594 168.054688 165.980469 167.078125 166.917969 165.984375 C 167.851562 164.886719 168.652344 163.703125 169.320312 162.425781 C 169.988281 161.152344 170.503906 159.816406 170.867188 158.421875 C 171.234375 157.03125 171.4375 155.613281 171.480469 154.175781 C 171.503906 152.71875 171.355469 151.277344 171.03125 149.855469 C 170.707031 148.433594 170.21875 147.074219 169.566406 145.769531 C 168.914062 144.464844 168.113281 143.261719 167.171875 142.148438 C 166.226562 141.039062 165.164062 140.058594 163.980469 139.203125 Z M 141.542969 168.507812 C 136.117188 167.550781 130.9375 165.84375 126.003906 163.394531 C 121.070312 160.945312 116.582031 157.851562 112.542969 154.105469 C 116.777344 150.269531 121.460938 147.089844 126.589844 144.5625 C 131.714844 142.035156 137.09375 140.261719 142.714844 139.238281 C 141.558594 140.078125 140.507812 141.039062 139.5625 142.117188 C 138.621094 143.195312 137.808594 144.363281 137.132812 145.625 C 136.453125 146.886719 135.921875 148.207031 135.542969 149.585938 C 135.164062 150.96875 134.941406 152.375 134.878906 153.804688 C 134.835938 155.203125 134.957031 156.585938 135.230469 157.957031 C 135.507812 159.328125 135.933594 160.652344 136.511719 161.925781 C 137.089844 163.199219 137.800781 164.390625 138.652344 165.503906 C 139.5 166.613281 140.464844 167.617188 141.542969 168.507812 Z M 145.441406 153.972656 C 145.441406 153.464844 145.488281 152.964844 145.589844 152.46875 C 145.6875 151.972656 145.835938 151.488281 146.03125 151.019531 C 146.222656 150.554688 146.460938 150.109375 146.746094 149.6875 C 147.027344 149.269531 147.347656 148.878906 147.710938 148.523438 C 148.070312 148.167969 148.460938 147.847656 148.882812 147.570312 C 149.304688 147.289062 149.753906 147.054688 150.222656 146.863281 C 150.691406 146.675781 151.175781 146.53125 151.671875 146.4375 C 152.171875 146.34375 152.671875 146.296875 153.179688 146.300781 L 153.242188 146.300781 C 153.75 146.3125 154.25 146.371094 154.746094 146.476562 C 155.242188 146.585938 155.722656 146.738281 156.1875 146.9375 C 156.652344 147.136719 157.09375 147.378906 157.515625 147.664062 C 157.933594 147.945312 158.320312 148.269531 158.679688 148.628906 C 159.035156 148.984375 159.355469 149.375 159.640625 149.796875 C 159.921875 150.21875 160.160156 150.660156 160.359375 151.128906 C 160.554688 151.59375 160.707031 152.074219 160.8125 152.570312 C 160.914062 153.066406 160.972656 153.566406 160.980469 154.074219 C 160.96875 154.585938 160.90625 155.089844 160.796875 155.589844 C 160.6875 156.089844 160.53125 156.574219 160.328125 157.042969 C 160.125 157.511719 159.882812 157.957031 159.59375 158.382812 C 159.308594 158.804688 158.984375 159.195312 158.625 159.558594 C 158.261719 159.917969 157.871094 160.242188 157.445312 160.53125 C 157.023438 160.816406 156.578125 161.058594 156.105469 161.261719 C 155.636719 161.464844 155.152344 161.617188 154.652344 161.730469 C 154.15625 161.839844 153.648438 161.898438 153.136719 161.914062 L 153.003906 161.914062 C 152.496094 161.894531 151.996094 161.828125 151.5 161.714844 C 151.007812 161.597656 150.527344 161.4375 150.066406 161.226562 C 149.601562 161.019531 149.164062 160.769531 148.75 160.476562 C 148.335938 160.183594 147.953125 159.851562 147.601562 159.484375 C 147.253906 159.117188 146.941406 158.71875 146.667969 158.292969 C 146.394531 157.863281 146.167969 157.414062 145.980469 156.941406 C 145.796875 156.46875 145.65625 155.984375 145.566406 155.484375 C 145.476562 154.984375 145.433594 154.480469 145.441406 153.972656 Z M 145.441406 153.972656 " fill-opacity="1" fill-rule="nonzero"/></g></svg>