<svg xmlns="http://www.w3.org/2000/svg" xmlns:xlink="http://www.w3.org/1999/xlink" width="500" zoomAndPan="magnify" viewBox="0 0 375 374.999991" height="500" preserveAspectRatio="xMidYMid meet" version="1.0"><defs><clipPath id="1101af2f9f"><path d="M 48.855469 75 L 326.355469 75 L 326.355469 294 L 48.855469 294 Z M 48.855469 75 " clip-rule="nonzero"/></clipPath></defs><g clip-path="url(#1101af2f9f)"><path fill="#feffff" d="M 139.296875 226.492188 L 136.867188 232.628906 L 238.648438 232.628906 L 236.253906 226.5 C 235.792969 225.28125 235.289062 224.082031 234.734375 222.898438 C 234.183594 221.714844 233.585938 220.554688 232.949219 219.417969 C 232.308594 218.28125 231.625 217.171875 230.902344 216.085938 C 230.175781 215 229.414062 213.941406 228.609375 212.914062 C 227.804688 211.886719 226.960938 210.890625 226.082031 209.925781 C 225.203125 208.964844 224.285156 208.035156 223.335938 207.136719 C 222.386719 206.242188 221.402344 205.386719 220.386719 204.5625 C 219.371094 203.742188 218.324219 202.960938 217.25 202.21875 C 216.175781 201.476562 215.074219 200.777344 213.945312 200.117188 C 212.820312 199.460938 211.667969 198.84375 210.492188 198.273438 C 209.316406 197.699219 208.121094 197.175781 206.910156 196.691406 C 205.695312 196.210938 204.460938 195.777344 203.214844 195.386719 C 201.96875 195 200.707031 194.65625 199.433594 194.363281 C 198.160156 194.070312 196.875 193.824219 195.585938 193.628906 C 194.292969 193.433594 192.996094 193.285156 191.691406 193.1875 C 190.386719 193.089844 189.082031 193.039062 187.777344 193.039062 C 186.46875 193.039062 185.164062 193.089844 183.859375 193.1875 C 182.554688 193.285156 181.257812 193.433594 179.964844 193.628906 C 178.675781 193.824219 177.390625 194.070312 176.117188 194.363281 C 174.84375 194.65625 173.582031 195 172.335938 195.386719 C 171.089844 195.777344 169.855469 196.210938 168.640625 196.691406 C 167.429688 197.175781 166.234375 197.699219 165.058594 198.273438 C 163.882812 198.84375 162.730469 199.460938 161.605469 200.117188 C 160.476562 200.777344 159.375 201.476562 158.300781 202.21875 C 157.226562 202.960938 156.179688 203.742188 155.164062 204.5625 C 154.148438 205.386719 153.164062 206.242188 152.214844 207.136719 C 151.265625 208.035156 150.347656 208.964844 149.46875 209.925781 C 148.589844 210.890625 147.746094 211.886719 146.941406 212.914062 C 146.136719 213.941406 145.375 215 144.648438 216.085938 C 143.925781 217.171875 143.242188 218.28125 142.601562 219.417969 C 141.964844 220.554688 141.367188 221.714844 140.816406 222.898438 C 140.261719 224.082031 139.757812 225.28125 139.296875 226.5 Z M 224.910156 223.640625 L 150.652344 223.640625 C 151.578125 222.007812 152.605469 220.441406 153.738281 218.945312 C 154.871094 217.445312 156.097656 216.03125 157.417969 214.695312 C 158.734375 213.359375 160.136719 212.117188 161.625 210.964844 C 163.109375 209.8125 164.664062 208.765625 166.285156 207.820312 C 167.910156 206.875 169.589844 206.039062 171.324219 205.316406 C 173.058594 204.59375 174.832031 203.984375 176.648438 203.496094 C 178.460938 203.007812 180.300781 202.636719 182.164062 202.390625 C 184.027344 202.144531 185.902344 202.019531 187.78125 202.019531 C 189.660156 202.019531 191.53125 202.144531 193.394531 202.390625 C 195.261719 202.636719 197.097656 203.007812 198.914062 203.496094 C 200.730469 203.984375 202.503906 204.59375 204.238281 205.316406 C 205.972656 206.039062 207.652344 206.875 209.273438 207.820312 C 210.898438 208.765625 212.453125 209.8125 213.9375 210.964844 C 215.421875 212.117188 216.824219 213.359375 218.144531 214.695312 C 219.464844 216.03125 220.691406 217.445312 221.824219 218.945312 C 222.957031 220.441406 223.984375 222.007812 224.910156 223.640625 Z M 275.488281 132.988281 L 275.558594 132.988281 C 276.496094 132.992188 277.429688 132.949219 278.363281 132.863281 C 279.296875 132.773438 280.222656 132.640625 281.144531 132.464844 C 282.0625 132.289062 282.972656 132.066406 283.871094 131.800781 C 284.769531 131.535156 285.652344 131.226562 286.523438 130.875 C 287.390625 130.527344 288.238281 130.132812 289.070312 129.699219 C 289.902344 129.265625 290.707031 128.792969 291.492188 128.28125 C 292.277344 127.769531 293.03125 127.222656 293.761719 126.636719 C 294.496094 126.050781 295.195312 125.429688 295.863281 124.777344 C 296.535156 124.125 297.171875 123.441406 297.773438 122.722656 C 298.378906 122.007812 298.945312 121.265625 299.476562 120.496094 C 300.007812 119.726562 300.5 118.929688 300.953125 118.113281 C 301.40625 117.296875 301.820312 116.457031 302.191406 115.597656 C 302.5625 114.742188 302.894531 113.867188 303.179688 112.976562 C 303.464844 112.085938 303.707031 111.183594 303.90625 110.269531 C 304.105469 109.355469 304.257812 108.4375 304.367188 107.507812 C 304.476562 106.578125 304.539062 105.648438 304.558594 104.710938 C 304.589844 102.851562 304.4375 101.003906 304.097656 99.175781 C 303.757812 97.34375 303.238281 95.566406 302.542969 93.839844 C 301.847656 92.113281 300.984375 90.472656 299.957031 88.917969 C 298.929688 87.363281 297.757812 85.925781 296.441406 84.605469 C 295.101562 83.21875 293.640625 81.980469 292.054688 80.882812 C 290.46875 79.785156 288.789062 78.855469 287.015625 78.09375 C 285.246094 77.332031 283.417969 76.75 281.53125 76.347656 C 279.644531 75.945312 277.734375 75.734375 275.804688 75.710938 L 275.769531 75.710938 C 274.351562 75.691406 272.9375 75.777344 271.53125 75.964844 C 270.125 76.152344 268.738281 76.445312 267.375 76.839844 C 266.011719 77.230469 264.683594 77.722656 263.394531 78.3125 C 262.101562 78.902344 260.863281 79.585938 259.675781 80.359375 C 258.484375 81.132812 257.359375 81.988281 256.296875 82.929688 C 255.234375 83.867188 254.25 84.882812 253.335938 85.964844 C 252.425781 87.050781 251.597656 88.199219 250.859375 89.40625 C 250.117188 90.617188 249.46875 91.871094 248.914062 93.175781 C 248.359375 94.480469 247.90625 95.816406 247.550781 97.1875 C 247.195312 98.558594 246.941406 99.949219 246.792969 101.355469 C 246.644531 102.765625 246.597656 104.175781 246.660156 105.59375 C 246.722656 107.007812 246.886719 108.410156 247.15625 109.800781 C 247.425781 111.191406 247.792969 112.554688 248.265625 113.890625 C 248.738281 115.226562 249.304688 116.519531 249.96875 117.773438 C 250.632812 119.023438 251.386719 120.21875 252.230469 121.359375 C 253.070312 122.5 253.992188 123.574219 254.992188 124.578125 C 256.339844 125.914062 257.804688 127.109375 259.390625 128.160156 C 260.972656 129.210938 262.644531 130.097656 264.402344 130.816406 C 266.160156 131.539062 267.972656 132.082031 269.839844 132.449219 C 271.703125 132.8125 273.589844 132.992188 275.488281 132.988281 Z M 260.992188 90.558594 C 261.933594 89.597656 262.960938 88.738281 264.074219 87.980469 C 265.1875 87.222656 266.367188 86.585938 267.609375 86.0625 C 268.851562 85.539062 270.132812 85.144531 271.453125 84.875 C 272.773438 84.605469 274.105469 84.472656 275.453125 84.46875 L 275.558594 84.46875 C 276.902344 84.460938 278.234375 84.589844 279.554688 84.847656 C 280.875 85.109375 282.152344 85.496094 283.394531 86.007812 C 284.636719 86.523438 285.816406 87.152344 286.929688 87.902344 C 288.046875 88.652344 289.078125 89.5 290.023438 90.453125 C 290.949219 91.355469 291.777344 92.339844 292.507812 93.40625 C 293.234375 94.46875 293.851562 95.597656 294.355469 96.785156 C 294.859375 97.976562 295.238281 99.199219 295.496094 100.464844 C 295.753906 101.730469 295.882812 103.007812 295.886719 104.296875 C 295.878906 104.949219 295.839844 105.597656 295.765625 106.246094 C 295.695312 106.894531 295.59375 107.535156 295.460938 108.175781 C 295.328125 108.8125 295.164062 109.441406 294.96875 110.066406 C 294.773438 110.6875 294.546875 111.296875 294.292969 111.898438 C 294.039062 112.496094 293.757812 113.085938 293.445312 113.65625 C 293.132812 114.230469 292.792969 114.785156 292.429688 115.328125 C 292.0625 115.867188 291.671875 116.386719 291.257812 116.890625 C 290.839844 117.390625 290.402344 117.871094 289.9375 118.332031 C 289.472656 118.792969 288.992188 119.226562 288.484375 119.640625 C 287.980469 120.054688 287.457031 120.441406 286.910156 120.804688 C 286.367188 121.164062 285.808594 121.5 285.234375 121.808594 C 284.65625 122.117188 284.070312 122.394531 283.464844 122.644531 C 282.863281 122.898438 282.25 123.117188 281.625 123.308594 C 281 123.5 280.367188 123.660156 279.730469 123.792969 C 279.089844 123.921875 278.445312 124.019531 277.792969 124.089844 C 277.144531 124.15625 276.492188 124.191406 275.839844 124.195312 C 273.148438 124.199219 270.554688 123.703125 268.054688 122.710938 C 265.554688 121.71875 263.328125 120.296875 261.375 118.453125 C 260.898438 118.007812 260.449219 117.542969 260.019531 117.050781 C 259.59375 116.5625 259.191406 116.054688 258.8125 115.523438 C 258.4375 114.992188 258.089844 114.445312 257.765625 113.882812 C 257.445312 113.316406 257.152344 112.738281 256.890625 112.144531 C 256.625 111.550781 256.394531 110.945312 256.191406 110.328125 C 255.992188 109.707031 255.820312 109.082031 255.679688 108.449219 C 255.542969 107.8125 255.4375 107.175781 255.363281 106.527344 C 255.289062 105.882812 255.246094 105.234375 255.238281 104.585938 C 255.226562 103.9375 255.25 103.289062 255.308594 102.640625 C 255.363281 101.996094 255.453125 101.351562 255.574219 100.714844 C 255.695312 100.078125 255.847656 99.445312 256.035156 98.824219 C 256.21875 98.199219 256.433594 97.589844 256.679688 96.988281 C 256.925781 96.386719 257.203125 95.800781 257.507812 95.226562 C 257.816406 94.652344 258.148438 94.097656 258.511719 93.554688 C 258.871094 93.015625 259.261719 92.496094 259.675781 91.996094 C 260.089844 91.496094 260.527344 91.015625 260.992188 90.558594 Z M 99.632812 134.324219 L 99.699219 134.324219 C 100.636719 134.324219 101.574219 134.285156 102.503906 134.195312 C 103.4375 134.109375 104.363281 133.976562 105.285156 133.800781 C 106.203125 133.625 107.113281 133.402344 108.011719 133.136719 C 108.910156 132.871094 109.792969 132.5625 110.664062 132.210938 C 111.53125 131.859375 112.378906 131.46875 113.210938 131.035156 C 114.042969 130.601562 114.847656 130.128906 115.632812 129.617188 C 116.417969 129.105469 117.171875 128.554688 117.902344 127.96875 C 118.632812 127.386719 119.335938 126.765625 120.003906 126.113281 C 120.675781 125.457031 121.3125 124.773438 121.914062 124.058594 C 122.519531 123.34375 123.085938 122.601562 123.617188 121.832031 C 124.148438 121.0625 124.640625 120.265625 125.09375 119.449219 C 125.546875 118.628906 125.960938 117.792969 126.332031 116.933594 C 126.703125 116.078125 127.03125 115.203125 127.320312 114.3125 C 127.605469 113.421875 127.847656 112.519531 128.046875 111.605469 C 128.246094 110.691406 128.398438 109.773438 128.507812 108.84375 C 128.617188 107.914062 128.679688 106.984375 128.699219 106.046875 C 128.730469 104.1875 128.578125 102.339844 128.238281 100.511719 C 127.898438 98.679688 127.378906 96.902344 126.683594 95.175781 C 125.984375 93.449219 125.121094 91.808594 124.097656 90.253906 C 123.070312 88.699219 121.898438 87.261719 120.582031 85.941406 C 119.242188 84.554688 117.78125 83.316406 116.195312 82.21875 C 114.609375 81.121094 112.929688 80.191406 111.15625 79.429688 C 109.386719 78.664062 107.554688 78.082031 105.667969 77.683594 C 103.78125 77.28125 101.871094 77.070312 99.941406 77.046875 L 99.910156 77.046875 C 98.488281 77.027344 97.074219 77.113281 95.667969 77.300781 C 94.261719 77.488281 92.875 77.78125 91.511719 78.175781 C 90.148438 78.566406 88.820312 79.058594 87.53125 79.648438 C 86.242188 80.238281 85 80.921875 83.8125 81.695312 C 82.621094 82.46875 81.496094 83.324219 80.433594 84.265625 C 79.371094 85.203125 78.386719 86.214844 77.476562 87.300781 C 76.5625 88.386719 75.738281 89.535156 74.996094 90.742188 C 74.253906 91.953125 73.605469 93.207031 73.054688 94.511719 C 72.5 95.816406 72.042969 97.152344 71.6875 98.523438 C 71.332031 99.894531 71.078125 101.285156 70.929688 102.691406 C 70.78125 104.101562 70.738281 105.511719 70.796875 106.929688 C 70.859375 108.34375 71.023438 109.746094 71.292969 111.136719 C 71.5625 112.527344 71.933594 113.890625 72.402344 115.226562 C 72.875 116.5625 73.445312 117.855469 74.109375 119.109375 C 74.773438 120.359375 75.523438 121.554688 76.367188 122.695312 C 77.207031 123.835938 78.128906 124.910156 79.128906 125.914062 C 80.476562 127.25 81.945312 128.445312 83.527344 129.496094 C 85.113281 130.546875 86.78125 131.433594 88.542969 132.152344 C 90.300781 132.875 92.113281 133.417969 93.980469 133.785156 C 95.84375 134.148438 97.730469 134.328125 99.632812 134.324219 Z M 85.132812 91.894531 C 86.074219 90.933594 87.101562 90.074219 88.214844 89.316406 C 89.328125 88.558594 90.507812 87.917969 91.75 87.398438 C 92.992188 86.875 94.273438 86.476562 95.59375 86.210938 C 96.914062 85.941406 98.25 85.804688 99.597656 85.804688 L 99.699219 85.804688 C 101.042969 85.796875 102.375 85.925781 103.695312 86.183594 C 105.015625 86.445312 106.292969 86.832031 107.535156 87.34375 C 108.777344 87.859375 109.957031 88.492188 111.074219 89.238281 C 112.1875 89.988281 113.21875 90.835938 114.164062 91.789062 C 115.089844 92.691406 115.917969 93.675781 116.648438 94.742188 C 117.375 95.804688 117.992188 96.933594 118.496094 98.121094 C 119 99.308594 119.378906 100.535156 119.636719 101.800781 C 119.894531 103.066406 120.023438 104.34375 120.027344 105.632812 C 120.019531 106.285156 119.980469 106.933594 119.910156 107.582031 C 119.835938 108.230469 119.734375 108.875 119.601562 109.511719 C 119.46875 110.148438 119.300781 110.777344 119.109375 111.402344 C 118.914062 112.023438 118.6875 112.632812 118.433594 113.234375 C 118.179688 113.835938 117.894531 114.421875 117.585938 114.992188 C 117.273438 115.566406 116.933594 116.121094 116.570312 116.664062 C 116.203125 117.203125 115.8125 117.722656 115.394531 118.226562 C 114.980469 118.726562 114.539062 119.210938 114.078125 119.667969 C 113.613281 120.128906 113.128906 120.5625 112.625 120.976562 C 112.117188 121.390625 111.59375 121.777344 111.050781 122.140625 C 110.507812 122.5 109.949219 122.835938 109.371094 123.144531 C 108.796875 123.453125 108.207031 123.730469 107.605469 123.980469 C 107 124.230469 106.386719 124.453125 105.761719 124.644531 C 105.140625 124.835938 104.507812 124.996094 103.867188 125.128906 C 103.226562 125.257812 102.582031 125.355469 101.933594 125.421875 C 101.28125 125.492188 100.632812 125.527344 99.976562 125.53125 C 97.289062 125.535156 94.691406 125.039062 92.191406 124.046875 C 89.691406 123.054688 87.464844 121.632812 85.511719 119.789062 C 85.039062 119.34375 84.585938 118.878906 84.160156 118.386719 C 83.730469 117.898438 83.328125 117.390625 82.953125 116.859375 C 82.574219 116.328125 82.226562 115.78125 81.902344 115.21875 C 81.582031 114.652344 81.289062 114.074219 81.027344 113.480469 C 80.765625 112.886719 80.53125 112.277344 80.328125 111.660156 C 80.128906 111.042969 79.957031 110.417969 79.820312 109.785156 C 79.679688 109.148438 79.574219 108.507812 79.5 107.863281 C 79.425781 107.21875 79.382812 106.570312 79.375 105.921875 C 79.367188 105.273438 79.390625 104.625 79.445312 103.976562 C 79.503906 103.332031 79.59375 102.6875 79.714844 102.050781 C 79.835938 101.410156 79.988281 100.78125 80.171875 100.160156 C 80.359375 99.535156 80.574219 98.921875 80.820312 98.324219 C 81.066406 97.722656 81.34375 97.132812 81.648438 96.5625 C 81.953125 95.988281 82.289062 95.429688 82.652344 94.890625 C 83.011719 94.351562 83.402344 93.832031 83.816406 93.332031 C 84.230469 92.828125 84.667969 92.351562 85.132812 91.894531 Z M 324.085938 177.71875 C 323.625 176.5 323.121094 175.296875 322.566406 174.117188 C 322.015625 172.933594 321.421875 171.773438 320.78125 170.636719 C 320.140625 169.5 319.460938 168.386719 318.734375 167.300781 C 318.011719 166.214844 317.246094 165.160156 316.441406 164.132812 C 315.636719 163.101562 314.796875 162.105469 313.914062 161.140625 C 313.035156 160.179688 312.121094 159.25 311.171875 158.351562 C 310.21875 157.457031 309.238281 156.597656 308.222656 155.777344 C 307.207031 154.957031 306.160156 154.175781 305.085938 153.433594 C 304.011719 152.691406 302.910156 151.992188 301.78125 151.332031 C 300.652344 150.671875 299.5 150.058594 298.328125 149.484375 C 297.152344 148.914062 295.957031 148.386719 294.742188 147.90625 C 293.527344 147.421875 292.296875 146.988281 291.046875 146.597656 C 289.800781 146.210938 288.539062 145.871094 287.265625 145.574219 C 285.992188 145.28125 284.710938 145.039062 283.417969 144.839844 C 282.125 144.644531 280.828125 144.496094 279.523438 144.398438 C 278.21875 144.300781 276.914062 144.25 275.609375 144.25 C 274.300781 144.25 272.996094 144.300781 271.691406 144.398438 C 270.386719 144.496094 269.089844 144.644531 267.796875 144.839844 C 266.507812 145.039062 265.222656 145.28125 263.949219 145.574219 C 262.675781 145.871094 261.414062 146.210938 260.167969 146.597656 C 258.917969 146.988281 257.6875 147.421875 256.472656 147.90625 C 255.257812 148.386719 254.0625 148.914062 252.890625 149.484375 C 251.714844 150.058594 250.5625 150.671875 249.433594 151.332031 C 248.308594 151.992188 247.207031 152.691406 246.128906 153.433594 C 245.054688 154.175781 244.011719 154.957031 242.996094 155.777344 C 241.980469 156.597656 240.996094 157.457031 240.046875 158.351562 C 239.09375 159.25 238.179688 160.179688 237.300781 161.140625 C 236.417969 162.105469 235.578125 163.101562 234.773438 164.132812 C 233.96875 165.160156 233.203125 166.214844 232.480469 167.300781 C 231.757812 168.386719 231.074219 169.5 230.433594 170.636719 C 229.792969 171.773438 229.199219 172.933594 228.648438 174.117188 C 228.09375 175.296875 227.589844 176.5 227.128906 177.71875 L 224.699219 183.855469 L 326.480469 183.855469 Z M 238.484375 174.859375 C 239.410156 173.226562 240.4375 171.660156 241.570312 170.160156 C 242.703125 168.664062 243.929688 167.246094 245.25 165.914062 C 246.570312 164.578125 247.972656 163.332031 249.457031 162.183594 C 250.941406 161.03125 252.496094 159.984375 254.121094 159.039062 C 255.742188 158.09375 257.421875 157.257812 259.15625 156.535156 C 260.890625 155.8125 262.664062 155.203125 264.480469 154.714844 C 266.296875 154.226562 268.136719 153.855469 270 153.609375 C 271.863281 153.363281 273.734375 153.238281 275.613281 153.238281 C 277.496094 153.238281 279.367188 153.363281 281.230469 153.609375 C 283.09375 153.855469 284.933594 154.226562 286.75 154.714844 C 288.5625 155.203125 290.335938 155.8125 292.070312 156.535156 C 293.808594 157.257812 295.484375 158.09375 297.109375 159.039062 C 298.734375 159.984375 300.289062 161.03125 301.773438 162.183594 C 303.257812 163.332031 304.660156 164.578125 305.980469 165.914062 C 307.300781 167.246094 308.527344 168.664062 309.660156 170.160156 C 310.789062 171.660156 311.820312 173.226562 312.742188 174.859375 Z M 148.226562 179.054688 C 147.328125 176.714844 146.265625 174.453125 145.039062 172.269531 C 143.8125 170.082031 142.4375 167.996094 140.910156 166.007812 C 139.382812 164.019531 137.71875 162.148438 135.921875 160.402344 C 134.125 158.652344 132.210938 157.039062 130.179688 155.566406 C 128.148438 154.089844 126.023438 152.769531 123.800781 151.601562 C 121.582031 150.433594 119.289062 149.429688 116.921875 148.589844 C 114.554688 147.75 112.140625 147.085938 109.679688 146.59375 C 107.21875 146.101562 104.734375 145.789062 102.226562 145.652344 C 100.871094 145.597656 99.515625 145.597656 98.160156 145.648438 C 96.804688 145.699219 95.453125 145.804688 94.105469 145.960938 C 92.761719 146.117188 91.421875 146.324219 90.089844 146.585938 C 88.757812 146.84375 87.441406 147.15625 86.132812 147.515625 C 84.828125 147.878906 83.535156 148.289062 82.261719 148.753906 C 80.988281 149.214844 79.734375 149.726562 78.5 150.285156 C 77.261719 150.84375 76.050781 151.449219 74.863281 152.101562 C 73.675781 152.757812 72.515625 153.453125 71.382812 154.199219 C 70.25 154.941406 69.148438 155.726562 68.074219 156.554688 C 67.003906 157.382812 65.964844 158.25 64.960938 159.160156 C 63.957031 160.070312 62.988281 161.015625 62.058594 162 C 61.125 162.984375 60.234375 164.003906 59.382812 165.054688 C 58.53125 166.109375 57.722656 167.191406 56.957031 168.308594 C 56.1875 169.425781 55.464844 170.566406 54.789062 171.738281 C 54.109375 172.910156 53.476562 174.105469 52.894531 175.328125 C 52.308594 176.546875 51.773438 177.789062 51.285156 179.050781 L 48.855469 185.1875 L 150.621094 185.1875 Z M 62.621094 176.199219 C 63.546875 174.566406 64.578125 173.003906 65.707031 171.503906 C 66.839844 170.007812 68.066406 168.589844 69.386719 167.253906 C 70.707031 165.917969 72.109375 164.675781 73.59375 163.527344 C 75.078125 162.375 76.632812 161.328125 78.257812 160.382812 C 79.882812 159.4375 81.558594 158.601562 83.292969 157.878906 C 85.027344 157.152344 86.804688 156.546875 88.617188 156.058594 C 90.433594 155.566406 92.273438 155.199219 94.136719 154.953125 C 96 154.707031 97.871094 154.582031 99.753906 154.582031 C 101.632812 154.582031 103.503906 154.707031 105.367188 154.953125 C 107.230469 155.199219 109.070312 155.566406 110.886719 156.058594 C 112.699219 156.546875 114.476562 157.152344 116.210938 157.878906 C 117.945312 158.601562 119.625 159.4375 121.246094 160.382812 C 122.871094 161.328125 124.425781 162.375 125.910156 163.527344 C 127.394531 164.675781 128.796875 165.917969 130.117188 167.253906 C 131.4375 168.589844 132.664062 170.007812 133.796875 171.503906 C 134.929688 173.003906 135.957031 174.566406 136.882812 176.199219 Z M 187.65625 181.761719 L 187.726562 181.761719 C 188.664062 181.765625 189.597656 181.722656 190.53125 181.636719 C 191.464844 181.550781 192.390625 181.417969 193.3125 181.238281 C 194.230469 181.0625 195.140625 180.839844 196.039062 180.574219 C 196.9375 180.3125 197.820312 180.003906 198.691406 179.652344 C 199.558594 179.300781 200.40625 178.90625 201.238281 178.472656 C 202.066406 178.039062 202.875 177.566406 203.660156 177.054688 C 204.441406 176.542969 205.199219 175.996094 205.929688 175.410156 C 206.660156 174.824219 207.363281 174.203125 208.03125 173.550781 C 208.703125 172.898438 209.339844 172.214844 209.941406 171.5 C 210.546875 170.785156 211.113281 170.039062 211.644531 169.269531 C 212.175781 168.5 212.667969 167.707031 213.121094 166.886719 C 213.574219 166.070312 213.988281 165.230469 214.359375 164.375 C 214.730469 163.515625 215.058594 162.640625 215.347656 161.75 C 215.632812 160.863281 215.875 159.960938 216.074219 159.046875 C 216.273438 158.132812 216.425781 157.210938 216.535156 156.28125 C 216.644531 155.355469 216.707031 154.421875 216.726562 153.488281 C 216.757812 151.625 216.601562 149.78125 216.261719 147.949219 C 215.925781 146.121094 215.40625 144.339844 214.707031 142.613281 C 214.011719 140.886719 213.148438 139.246094 212.121094 137.691406 C 211.097656 136.136719 209.925781 134.703125 208.609375 133.382812 C 207.269531 131.996094 205.808594 130.753906 204.21875 129.65625 C 202.632812 128.5625 200.957031 127.632812 199.183594 126.867188 C 197.414062 126.105469 195.582031 125.523438 193.695312 125.121094 C 191.808594 124.722656 189.898438 124.507812 187.96875 124.488281 L 187.953125 124.488281 C 186.53125 124.46875 185.121094 124.550781 183.710938 124.738281 C 182.304688 124.929688 180.921875 125.21875 179.558594 125.613281 C 178.191406 126.007812 176.867188 126.5 175.574219 127.089844 C 174.285156 127.679688 173.046875 128.359375 171.855469 129.132812 C 170.667969 129.90625 169.539062 130.761719 168.480469 131.703125 C 167.417969 132.644531 166.429688 133.65625 165.519531 134.742188 C 164.605469 135.828125 163.78125 136.976562 163.039062 138.183594 C 162.296875 139.390625 161.652344 140.648438 161.097656 141.949219 C 160.542969 143.253906 160.085938 144.589844 159.730469 145.964844 C 159.375 147.335938 159.125 148.722656 158.972656 150.132812 C 158.824219 151.539062 158.78125 152.953125 158.84375 154.367188 C 158.902344 155.78125 159.066406 157.183594 159.335938 158.574219 C 159.605469 159.964844 159.976562 161.328125 160.449219 162.664062 C 160.917969 164 161.488281 165.296875 162.152344 166.546875 C 162.816406 167.800781 163.570312 168.996094 164.410156 170.136719 C 165.253906 171.277344 166.171875 172.347656 167.175781 173.351562 C 168.519531 174.691406 169.984375 175.882812 171.566406 176.933594 C 173.152344 177.984375 174.820312 178.867188 176.578125 179.589844 C 178.335938 180.3125 180.144531 180.855469 182.011719 181.21875 C 183.875 181.585938 185.757812 181.765625 187.65625 181.761719 Z M 173.15625 139.332031 C 174.101562 138.371094 175.128906 137.511719 176.242188 136.757812 C 177.355469 136 178.535156 135.359375 179.777344 134.835938 C 181.019531 134.3125 182.300781 133.917969 183.621094 133.648438 C 184.941406 133.382812 186.273438 133.246094 187.621094 133.242188 L 187.726562 133.242188 C 189.070312 133.238281 190.402344 133.363281 191.722656 133.625 C 193.039062 133.882812 194.320312 134.269531 195.5625 134.785156 C 196.804688 135.300781 197.984375 135.929688 199.097656 136.679688 C 200.214844 137.425781 201.246094 138.277344 202.191406 139.230469 C 203.117188 140.128906 203.945312 141.113281 204.671875 142.179688 C 205.402344 143.246094 206.019531 144.371094 206.523438 145.5625 C 207.027344 146.75 207.40625 147.976562 207.664062 149.242188 C 207.921875 150.503906 208.050781 151.78125 208.054688 153.074219 C 208.046875 153.722656 208.007812 154.375 207.933594 155.023438 C 207.863281 155.667969 207.761719 156.3125 207.628906 156.949219 C 207.492188 157.589844 207.328125 158.21875 207.132812 158.839844 C 206.9375 159.460938 206.714844 160.074219 206.460938 160.671875 C 206.207031 161.273438 205.921875 161.859375 205.609375 162.433594 C 205.300781 163.003906 204.960938 163.5625 204.59375 164.101562 C 204.230469 164.640625 203.839844 165.164062 203.421875 165.664062 C 203.003906 166.167969 202.566406 166.648438 202.101562 167.109375 C 201.640625 167.566406 201.15625 168.003906 200.648438 168.417969 C 200.144531 168.828125 199.621094 169.214844 199.078125 169.578125 C 198.535156 169.941406 197.972656 170.273438 197.398438 170.582031 C 196.824219 170.890625 196.234375 171.171875 195.628906 171.421875 C 195.027344 171.671875 194.414062 171.894531 193.789062 172.085938 C 193.164062 172.277344 192.535156 172.4375 191.894531 172.566406 C 191.253906 172.695312 190.609375 172.796875 189.957031 172.863281 C 189.308594 172.929688 188.65625 172.96875 188.003906 172.972656 C 185.3125 172.972656 182.71875 172.476562 180.21875 171.484375 C 177.71875 170.492188 175.492188 169.074219 173.539062 167.226562 C 173.066406 166.78125 172.613281 166.316406 172.183594 165.828125 C 171.757812 165.335938 171.355469 164.828125 170.976562 164.296875 C 170.601562 163.769531 170.253906 163.222656 169.929688 162.65625 C 169.609375 162.09375 169.316406 161.511719 169.054688 160.917969 C 168.789062 160.324219 168.558594 159.71875 168.355469 159.101562 C 168.15625 158.484375 167.984375 157.859375 167.84375 157.222656 C 167.707031 156.589844 167.601562 155.949219 167.527344 155.304688 C 167.453125 154.65625 167.410156 154.011719 167.402344 153.359375 C 167.394531 152.710938 167.417969 152.0625 167.472656 151.417969 C 167.53125 150.769531 167.617188 150.128906 167.738281 149.488281 C 167.859375 148.851562 168.015625 148.21875 168.199219 147.597656 C 168.382812 146.976562 168.601562 146.363281 168.847656 145.761719 C 169.09375 145.160156 169.371094 144.574219 169.675781 144 C 169.980469 143.425781 170.316406 142.871094 170.675781 142.332031 C 171.039062 141.792969 171.425781 141.269531 171.84375 140.769531 C 172.257812 140.269531 172.695312 139.789062 173.15625 139.332031 Z M 298.835938 218.175781 C 298.808594 218.292969 298.804688 218.398438 298.769531 218.523438 C 297.1875 223.394531 295.222656 228.109375 292.878906 232.664062 C 290.535156 237.222656 287.839844 241.5625 284.796875 245.6875 C 281.75 249.808594 278.394531 253.664062 274.726562 257.246094 C 271.058594 260.828125 267.125 264.097656 262.929688 267.046875 C 258.847656 269.964844 254.621094 272.652344 250.25 275.117188 C 245.878906 277.582031 241.386719 279.804688 236.777344 281.785156 C 232.167969 283.769531 227.464844 285.5 222.667969 286.976562 C 217.871094 288.457031 213.007812 289.675781 208.078125 290.632812 C 203.152344 291.589844 198.1875 292.285156 193.183594 292.710938 C 188.183594 293.136719 183.171875 293.292969 178.152344 293.183594 C 173.132812 293.074219 168.132812 292.695312 163.15625 292.050781 C 158.175781 291.402344 153.246094 290.496094 148.367188 289.320312 C 113.84375 280.496094 84.195312 253.46875 77.6875 218.175781 L 88.222656 218.175781 C 89.09375 222.023438 90.253906 225.78125 91.699219 229.453125 C 93.148438 233.125 94.871094 236.664062 96.859375 240.070312 C 98.851562 243.480469 101.09375 246.714844 103.582031 249.78125 C 106.070312 252.847656 108.777344 255.707031 111.707031 258.359375 C 130.332031 275.636719 155.238281 282.789062 180.253906 282.742188 L 180.253906 260.207031 L 190.660156 260.207031 L 190.660156 282.316406 C 199.597656 281.601562 208.386719 280.042969 217.023438 277.640625 C 247.5 269.15625 277.3125 249.019531 287.890625 218.164062 Z M 298.835938 218.175781 " fill-opacity="1" fill-rule="nonzero"/></g></svg>