<svg xmlns="http://www.w3.org/2000/svg" xmlns:xlink="http://www.w3.org/1999/xlink" width="500" zoomAndPan="magnify" viewBox="0 0 375 374.999991" height="500" preserveAspectRatio="xMidYMid meet" version="1.0"><defs><clipPath id="1ede484c1f"><path d="M 55 68 L 320.503906 68 L 320.503906 307 L 55 307 Z M 55 68 " clip-rule="nonzero"/></clipPath></defs><g clip-path="url(#1ede484c1f)"><path fill="#feffff" d="M 320.570312 173.074219 L 261.289062 68.046875 L 238.617188 111.160156 C 234.964844 108.484375 231.121094 106.113281 227.085938 104.050781 C 223.054688 101.984375 218.886719 100.25 214.578125 98.847656 C 210.273438 97.441406 205.878906 96.386719 201.40625 95.679688 C 196.929688 94.972656 192.429688 94.621094 187.898438 94.628906 C 177.160156 94.601562 166.792969 96.546875 156.796875 100.460938 C 156.234375 99.476562 155.640625 98.507812 155.015625 97.558594 C 154.390625 96.609375 153.738281 95.679688 153.054688 94.773438 C 152.371094 93.863281 151.660156 92.976562 150.921875 92.113281 C 150.183594 91.25 149.417969 90.414062 148.625 89.597656 C 147.832031 88.78125 147.015625 87.992188 146.175781 87.230469 C 145.332031 86.464844 144.46875 85.730469 143.578125 85.019531 C 142.691406 84.3125 141.78125 83.632812 140.847656 82.980469 C 139.917969 82.328125 138.964844 81.707031 137.996094 81.117188 C 137.023438 80.527344 136.035156 79.964844 135.03125 79.4375 C 134.023438 78.90625 133.003906 78.410156 131.964844 77.945312 C 130.929688 77.480469 129.878906 77.050781 128.8125 76.652344 C 127.75 76.253906 126.671875 75.890625 125.585938 75.558594 C 124.496094 75.230469 123.398438 74.933594 122.292969 74.671875 C 121.1875 74.410156 120.074219 74.1875 118.953125 73.996094 C 117.832031 73.804688 116.707031 73.648438 115.578125 73.527344 C 114.445312 73.410156 113.3125 73.324219 112.179688 73.277344 C 111.042969 73.230469 109.90625 73.214844 108.769531 73.238281 C 107.632812 73.261719 106.5 73.324219 105.367188 73.417969 C 104.234375 73.511719 103.105469 73.644531 101.980469 73.808594 C 100.855469 73.976562 99.738281 74.175781 98.625 74.414062 C 97.515625 74.652344 96.410156 74.921875 95.316406 75.230469 C 94.222656 75.535156 93.136719 75.875 92.066406 76.25 C 90.992188 76.625 89.933594 77.035156 88.882812 77.476562 C 87.835938 77.917969 86.804688 78.390625 85.789062 78.898438 C 84.769531 79.40625 83.769531 79.945312 82.785156 80.515625 C 81.804688 81.085938 80.839844 81.683594 79.894531 82.316406 C 78.949219 82.945312 78.023438 83.605469 77.121094 84.296875 C 76.214844 84.984375 75.335938 85.703125 74.476562 86.445312 C 73.617188 87.191406 72.785156 87.964844 71.976562 88.761719 C 71.164062 89.558594 70.382812 90.378906 69.625 91.226562 C 68.867188 92.074219 68.136719 92.945312 67.433594 93.835938 C 66.730469 94.730469 66.054688 95.644531 65.410156 96.578125 C 64.765625 97.515625 64.152344 98.46875 63.566406 99.445312 C 62.980469 100.417969 62.429688 101.410156 61.90625 102.417969 C 61.382812 103.429688 60.894531 104.453125 60.4375 105.492188 C 59.980469 106.535156 59.554688 107.585938 59.164062 108.65625 C 58.773438 109.722656 58.417969 110.800781 58.09375 111.890625 C 57.773438 112.980469 57.484375 114.078125 57.230469 115.183594 C 56.976562 116.292969 56.757812 117.40625 56.578125 118.527344 C 56.394531 119.648438 56.246094 120.777344 56.132812 121.90625 C 56.023438 123.039062 55.945312 124.171875 55.90625 125.304688 C 55.867188 126.441406 55.863281 127.578125 55.894531 128.710938 C 55.925781 129.847656 55.992188 130.980469 56.09375 132.113281 C 56.199219 133.246094 56.335938 134.371094 56.511719 135.496094 C 56.683594 136.617188 56.894531 137.734375 57.140625 138.84375 C 57.382812 139.953125 57.664062 141.054688 57.976562 142.144531 C 58.292969 143.238281 58.640625 144.320312 59.023438 145.386719 C 59.40625 146.457031 59.820312 147.515625 60.273438 148.558594 C 60.722656 149.601562 61.203125 150.632812 61.71875 151.644531 C 62.230469 152.65625 62.777344 153.652344 63.355469 154.632812 C 63.929688 155.609375 64.539062 156.570312 65.175781 157.511719 C 65.816406 158.453125 66.480469 159.371094 67.175781 160.269531 C 67.875 161.167969 68.597656 162.042969 69.347656 162.894531 C 70.097656 163.75 70.875 164.578125 71.679688 165.378906 C 72.484375 166.183594 73.3125 166.960938 74.164062 167.714844 C 75.015625 168.464844 75.894531 169.1875 76.792969 169.882812 C 77.6875 170.582031 78.609375 171.246094 79.550781 171.886719 C 80.488281 172.523438 81.449219 173.132812 82.429688 173.710938 C 83.40625 174.289062 84.402344 174.832031 85.417969 175.347656 C 86.429688 175.863281 87.457031 176.34375 88.503906 176.792969 C 89.546875 177.246094 90.601562 177.660156 91.671875 178.042969 C 92.742188 178.425781 93.824219 178.777344 94.917969 179.089844 C 96.007812 179.40625 97.109375 179.6875 98.21875 179.929688 C 99.328125 180.175781 100.445312 180.386719 101.570312 180.5625 L 101.570312 180.851562 C 101.570312 184.253906 101.769531 187.640625 102.171875 191.019531 C 102.574219 194.394531 103.171875 197.734375 103.96875 201.039062 C 104.765625 204.347656 105.753906 207.59375 106.9375 210.78125 C 108.117188 213.96875 109.480469 217.078125 111.03125 220.105469 C 112.582031 223.132812 114.304688 226.058594 116.199219 228.878906 C 118.09375 231.703125 120.148438 234.40625 122.367188 236.984375 C 124.582031 239.566406 126.941406 242.003906 129.445312 244.304688 C 131.949219 246.605469 134.582031 248.753906 137.339844 250.742188 L 137.339844 306.5625 L 238.425781 306.5625 L 238.425781 250.742188 C 241.179688 248.75 243.808594 246.605469 246.3125 244.300781 C 248.8125 242 251.171875 239.558594 253.386719 236.976562 C 255.597656 234.398438 257.652344 231.695312 259.546875 228.871094 C 261.441406 226.046875 263.160156 223.125 264.707031 220.097656 C 266.253906 217.070312 267.621094 213.964844 268.800781 210.773438 C 269.980469 207.585938 270.96875 204.339844 271.765625 201.035156 C 272.558594 197.730469 273.160156 194.390625 273.558594 191.015625 C 273.960938 187.640625 274.160156 184.253906 274.160156 180.851562 C 274.160156 178.226562 274.03125 175.632812 273.804688 173.074219 Z M 65.378906 127.207031 C 65.375 126 65.425781 124.792969 65.523438 123.589844 C 65.621094 122.386719 65.765625 121.191406 65.960938 120 C 66.15625 118.808594 66.398438 117.625 66.6875 116.453125 C 66.980469 115.28125 67.320312 114.125 67.703125 112.980469 C 68.089844 111.835938 68.519531 110.710938 68.996094 109.601562 C 69.476562 108.492188 69.996094 107.40625 70.5625 106.339844 C 71.128906 105.273438 71.734375 104.230469 72.386719 103.214844 C 73.039062 102.195312 73.726562 101.207031 74.460938 100.246094 C 75.191406 99.285156 75.960938 98.355469 76.765625 97.457031 C 77.574219 96.5625 78.414062 95.695312 79.292969 94.867188 C 80.171875 94.039062 81.078125 93.246094 82.019531 92.488281 C 82.964844 91.734375 83.933594 91.019531 84.933594 90.339844 C 85.933594 89.664062 86.960938 89.03125 88.011719 88.4375 C 89.0625 87.84375 90.136719 87.296875 91.234375 86.789062 C 92.332031 86.285156 93.445312 85.824219 94.582031 85.410156 C 95.714844 84.996094 96.863281 84.625 98.027344 84.304688 C 99.191406 83.984375 100.367188 83.710938 101.554688 83.484375 C 102.742188 83.257812 103.933594 83.082031 105.136719 82.953125 C 106.335938 82.824219 107.539062 82.746094 108.746094 82.714844 C 109.953125 82.683594 111.160156 82.703125 112.367188 82.769531 C 113.570312 82.839844 114.773438 82.957031 115.96875 83.121094 C 117.164062 83.285156 118.351562 83.5 119.53125 83.761719 C 120.710938 84.023438 121.875 84.335938 123.03125 84.691406 C 124.183594 85.050781 125.320312 85.453125 126.441406 85.902344 C 127.5625 86.351562 128.664062 86.847656 129.742188 87.386719 C 130.824219 87.925781 131.878906 88.507812 132.914062 89.132812 C 133.945312 89.757812 134.953125 90.421875 135.929688 91.128906 C 136.910156 91.835938 137.859375 92.582031 138.777344 93.367188 C 139.695312 94.152344 140.578125 94.972656 141.429688 95.828125 C 142.28125 96.683594 143.097656 97.574219 143.875 98.496094 C 144.652344 99.417969 145.394531 100.371094 146.09375 101.355469 C 146.796875 102.339844 147.457031 103.347656 148.074219 104.382812 C 149.726562 107.109375 151.054688 109.984375 152.0625 113.007812 C 153.628906 117.609375 154.410156 122.34375 154.398438 127.207031 C 154.398438 128.625 154.328125 130.042969 154.191406 131.457031 C 154.054688 132.871094 153.851562 134.273438 153.582031 135.667969 C 153.308594 137.0625 152.972656 138.441406 152.570312 139.804688 C 152.164062 141.167969 151.699219 142.507812 151.167969 143.824219 C 150.636719 145.140625 150.042969 146.429688 149.386719 147.691406 C 148.730469 148.949219 148.019531 150.175781 147.246094 151.371094 C 146.472656 152.5625 145.644531 153.714844 144.761719 154.828125 C 143.878906 155.941406 142.945312 157.007812 141.960938 158.03125 C 140.976562 159.054688 139.941406 160.03125 138.863281 160.957031 C 137.785156 161.878906 136.664062 162.75 135.503906 163.570312 C 134.339844 164.386719 133.144531 165.148438 131.90625 165.851562 C 130.671875 166.554688 129.40625 167.195312 128.109375 167.777344 C 126.816406 168.359375 125.492188 168.878906 124.148438 169.332031 C 122.800781 169.789062 121.4375 170.179688 120.054688 170.503906 C 118.667969 170.828125 117.273438 171.085938 115.867188 171.277344 C 114.457031 171.46875 113.042969 171.589844 111.621094 171.648438 C 111.039062 171.703125 110.457031 171.722656 109.871094 171.710938 C 107.277344 171.714844 104.707031 171.488281 102.152344 171.03125 C 100.878906 170.804688 99.613281 170.523438 98.363281 170.1875 C 97.113281 169.851562 95.878906 169.460938 94.660156 169.015625 C 93.445312 168.574219 92.25 168.078125 91.074219 167.53125 C 89.902344 166.980469 88.753906 166.382812 87.632812 165.734375 C 86.511719 165.085938 85.421875 164.390625 84.359375 163.648438 C 83.300781 162.90625 82.273438 162.117188 81.28125 161.285156 C 80.289062 160.453125 79.335938 159.578125 78.417969 158.660156 C 77.503906 157.746094 76.628906 156.792969 75.796875 155.800781 C 74.964844 154.808594 74.175781 153.78125 73.433594 152.71875 C 72.691406 151.660156 71.996094 150.566406 71.347656 149.445312 C 70.699219 148.324219 70.101562 147.179688 69.554688 146.003906 C 69.007812 144.832031 68.511719 143.636719 68.070312 142.417969 C 67.625 141.203125 67.234375 139.96875 66.898438 138.71875 C 66.5625 137.46875 66.285156 136.203125 66.058594 134.929688 C 65.832031 133.65625 65.664062 132.371094 65.550781 131.082031 C 65.4375 129.792969 65.378906 128.5 65.378906 127.207031 Z M 228.921875 297.0625 L 146.84375 297.0625 L 146.84375 215.050781 L 228.921875 215.050781 Z M 264.691406 180.851562 C 264.691406 183.582031 264.546875 186.300781 264.257812 189.011719 C 263.96875 191.722656 263.53125 194.414062 262.957031 197.078125 C 262.378906 199.742188 261.660156 202.371094 260.800781 204.957031 C 259.941406 207.546875 258.949219 210.082031 257.820312 212.566406 C 256.6875 215.046875 255.429688 217.464844 254.042969 219.8125 C 252.65625 222.160156 251.144531 224.425781 249.515625 226.613281 C 247.886719 228.800781 246.144531 230.894531 244.289062 232.894531 C 242.4375 234.898438 240.480469 236.792969 238.425781 238.585938 L 238.425781 205.554688 L 137.339844 205.554688 L 137.339844 238.585938 C 135.292969 236.804688 133.347656 234.917969 131.5 232.925781 C 129.65625 230.9375 127.917969 228.855469 126.292969 226.679688 C 124.671875 224.507812 123.164062 222.25 121.78125 219.917969 C 120.394531 217.582031 119.140625 215.183594 118.011719 212.714844 C 116.878906 210.246094 115.886719 207.726562 115.023438 205.152344 C 114.164062 202.578125 113.441406 199.964844 112.859375 197.316406 C 112.273438 194.664062 111.835938 191.992188 111.535156 189.292969 C 111.238281 186.597656 111.082031 183.890625 111.070312 181.175781 C 112.816406 181.136719 114.550781 181.015625 116.285156 180.808594 C 118.015625 180.597656 119.730469 180.308594 121.4375 179.933594 C 123.140625 179.5625 124.820312 179.105469 126.480469 178.570312 C 128.136719 178.03125 129.769531 177.417969 131.367188 176.722656 C 132.96875 176.03125 134.527344 175.257812 136.054688 174.414062 C 137.578125 173.570312 139.058594 172.652344 140.496094 171.664062 C 141.933594 170.675781 143.316406 169.621094 144.652344 168.5 C 145.984375 167.375 147.261719 166.191406 148.484375 164.945312 C 149.703125 163.699219 150.859375 162.398438 151.953125 161.039062 C 153.046875 159.683594 154.070312 158.273438 155.027344 156.816406 C 155.984375 155.359375 156.871094 153.863281 157.683594 152.320312 C 158.492188 150.777344 159.230469 149.199219 159.886719 147.585938 C 160.546875 145.972656 161.128906 144.328125 161.628906 142.660156 C 162.128906 140.988281 162.546875 139.300781 162.882812 137.589844 C 163.21875 135.878906 163.472656 134.15625 163.644531 132.421875 C 163.8125 130.6875 163.898438 128.949219 163.898438 127.207031 C 163.910156 120.980469 162.859375 114.941406 160.753906 109.085938 C 163.773438 107.941406 166.855469 106.996094 169.992188 106.242188 C 173.132812 105.488281 176.308594 104.933594 179.519531 104.582031 C 182.726562 104.230469 185.945312 104.082031 189.175781 104.136719 C 192.402344 104.191406 195.617188 104.449219 198.8125 104.910156 C 202.007812 105.367188 205.164062 106.027344 208.273438 106.886719 C 211.386719 107.746094 214.433594 108.796875 217.414062 110.039062 C 220.394531 111.285156 223.28125 112.710938 226.082031 114.316406 C 228.882812 115.925781 231.570312 117.703125 234.144531 119.652344 L 206.058594 173.074219 L 264.304688 173.074219 C 264.5625 175.660156 264.695312 178.253906 264.691406 180.851562 Z M 262.714844 163.574219 L 221.789062 163.574219 L 241.539062 126.039062 L 246.109375 117.285156 L 261.578125 87.886719 L 304.289062 163.574219 Z M 262.714844 163.574219 " fill-opacity="1" fill-rule="nonzero"/></g></svg>