<svg xmlns="http://www.w3.org/2000/svg" xmlns:xlink="http://www.w3.org/1999/xlink" width="500" zoomAndPan="magnify" viewBox="0 0 375 374.999991" height="500" preserveAspectRatio="xMidYMid meet" version="1.0"><defs><clipPath id="b4188cac49"><path d="M 45.652344 80.878906 L 188 80.878906 L 188 223 L 45.652344 223 Z M 45.652344 80.878906 " clip-rule="nonzero"/></clipPath><clipPath id="f03621becd"><path d="M 187 80.878906 L 329.152344 80.878906 L 329.152344 223 L 187 223 Z M 187 80.878906 " clip-rule="nonzero"/></clipPath><clipPath id="18742ee96a"><path d="M 258 151 L 329.152344 151 L 329.152344 293.878906 L 258 293.878906 Z M 258 151 " clip-rule="nonzero"/></clipPath><clipPath id="ebd34b979a"><path d="M 116 151 L 259 151 L 259 293.878906 L 116 293.878906 Z M 116 151 " clip-rule="nonzero"/></clipPath><clipPath id="06d2833c54"><path d="M 45.652344 151 L 117 151 L 117 293.878906 L 45.652344 293.878906 Z M 45.652344 151 " clip-rule="nonzero"/></clipPath></defs><g clip-path="url(#b4188cac49)"><path fill="#045174" d="M 45.652344 151.859375 L 81.074219 116.378906 L 116.558594 80.894531 L 151.980469 116.378906 L 187.402344 151.859375 L 151.980469 187.34375 L 116.558594 222.894531 L 81.074219 187.34375 Z M 45.652344 151.859375 " fill-opacity="1" fill-rule="evenodd"/></g><g clip-path="url(#f03621becd)"><path fill="#013953" d="M 329.152344 151.859375 L 293.730469 116.378906 L 258.246094 80.894531 L 222.824219 116.378906 L 187.402344 151.859375 L 222.824219 187.34375 L 258.246094 222.894531 L 293.730469 187.34375 Z M 329.152344 151.859375 " fill-opacity="1" fill-rule="evenodd"/></g><g clip-path="url(#18742ee96a)"><path fill="#3b769b" d="M 329.152344 151.859375 L 293.730469 187.34375 L 258.246094 222.894531 L 293.730469 258.378906 L 329.152344 293.859375 Z M 329.152344 151.859375 " fill-opacity="1" fill-rule="evenodd"/></g><g clip-path="url(#ebd34b979a)"><path fill="#c26500" d="M 116.558594 222.894531 L 151.980469 187.34375 L 187.402344 151.859375 L 222.824219 187.34375 L 258.246094 222.894531 L 222.824219 258.378906 L 187.402344 293.859375 L 151.980469 258.378906 Z M 116.558594 222.894531 " fill-opacity="1" fill-rule="evenodd"/></g><g clip-path="url(#06d2833c54)"><path fill="#f8dcbf" d="M 45.652344 151.859375 L 81.074219 187.34375 L 116.558594 222.894531 L 81.074219 258.378906 L 45.652344 293.859375 Z M 45.652344 151.859375 " fill-opacity="1" fill-rule="evenodd"/></g></svg>