<svg xmlns="http://www.w3.org/2000/svg" xmlns:xlink="http://www.w3.org/1999/xlink" width="500" zoomAndPan="magnify" viewBox="0 0 375 374.999991" height="500" preserveAspectRatio="xMidYMid meet" version="1.0"><defs><g/><clipPath id="05ee197a5d"><path d="M 53.804688 48.9375 L 188 48.9375 L 188 183 L 53.804688 183 Z M 53.804688 48.9375 " clip-rule="nonzero"/></clipPath><clipPath id="f451435392"><path d="M 187 48.9375 L 321.554688 48.9375 L 321.554688 183 L 187 183 Z M 187 48.9375 " clip-rule="nonzero"/></clipPath><clipPath id="762dd81435"><path d="M 254 115 L 321.554688 115 L 321.554688 249.1875 L 254 249.1875 Z M 254 115 " clip-rule="nonzero"/></clipPath><clipPath id="0338ca7dc6"><path d="M 120 115 L 255 115 L 255 249.1875 L 120 249.1875 Z M 120 115 " clip-rule="nonzero"/></clipPath><clipPath id="910276a005"><path d="M 53.804688 115 L 121 115 L 121 249.1875 L 53.804688 249.1875 Z M 53.804688 115 " clip-rule="nonzero"/></clipPath></defs><g clip-path="url(#05ee197a5d)"><path fill="#045174" d="M 53.804688 115.671875 L 87.257812 82.3125 L 120.773438 48.953125 L 187.679688 115.671875 L 154.226562 149.03125 L 120.773438 182.449219 L 87.257812 149.03125 Z M 53.804688 115.671875 " fill-opacity="1" fill-rule="evenodd"/></g><g clip-path="url(#f451435392)"><path fill="#013953" d="M 321.554688 115.671875 L 288.101562 82.3125 L 254.585938 48.953125 L 187.679688 115.671875 L 221.132812 149.03125 L 254.585938 182.449219 L 288.101562 149.03125 Z M 321.554688 115.671875 " fill-opacity="1" fill-rule="evenodd"/></g><g clip-path="url(#762dd81435)"><path fill="#3b769b" d="M 321.554688 115.671875 L 288.101562 149.03125 L 254.585938 182.449219 L 288.101562 215.808594 L 321.554688 249.167969 Z M 321.554688 115.671875 " fill-opacity="1" fill-rule="evenodd"/></g><g clip-path="url(#0338ca7dc6)"><path fill="#c26500" d="M 120.773438 182.449219 L 154.226562 149.03125 L 187.679688 115.671875 L 221.132812 149.03125 L 254.585938 182.449219 L 187.679688 249.167969 Z M 120.773438 182.449219 " fill-opacity="1" fill-rule="evenodd"/></g><g clip-path="url(#910276a005)"><path fill="#f8dcbf" d="M 53.804688 115.671875 L 87.257812 149.03125 L 120.773438 182.449219 L 87.257812 215.808594 L 53.804688 249.167969 Z M 53.804688 115.671875 " fill-opacity="1" fill-rule="evenodd"/></g><g fill="#ffffff" fill-opacity="1"><g transform="translate(118.097934, 296.409429)"><g><path d="M 41.765625 -32.140625 C 40.703125 -32.078125 39.9375 -31.953125 39.46875 -31.765625 C 39.007812 -31.578125 38.691406 -31.21875 38.515625 -30.6875 C 38.347656 -30.164062 38.265625 -29.3125 38.265625 -28.125 L 38.265625 -4.953125 C 38.265625 -3.765625 38.347656 -2.90625 38.515625 -2.375 C 38.691406 -1.851562 39.019531 -1.5 39.5 -1.3125 C 39.976562 -1.125 40.734375 -1 41.765625 -0.9375 L 41.765625 0 C 40.054688 -0.09375 37.613281 -0.140625 34.4375 -0.140625 C 31.101562 -0.140625 28.640625 -0.09375 27.046875 0 L 27.046875 -0.9375 C 28.171875 -1 28.988281 -1.125 29.5 -1.3125 C 30.019531 -1.5 30.367188 -1.851562 30.546875 -2.375 C 30.734375 -2.90625 30.828125 -3.765625 30.828125 -4.953125 L 30.828125 -29.390625 L 19.578125 0.046875 L 18.828125 0.046875 L 6.21875 -30.046875 L 6.21875 -7.65625 C 6.21875 -5.820312 6.3125 -4.476562 6.5 -3.625 C 6.6875 -2.769531 7.085938 -2.144531 7.703125 -1.75 C 8.328125 -1.363281 9.34375 -1.09375 10.75 -0.9375 L 10.75 0 C 9.53125 -0.09375 7.847656 -0.140625 5.703125 -0.140625 C 3.984375 -0.140625 2.628906 -0.09375 1.640625 0 L 1.640625 -0.9375 C 2.660156 -1.09375 3.410156 -1.359375 3.890625 -1.734375 C 4.378906 -2.109375 4.707031 -2.695312 4.875 -3.5 C 5.050781 -4.3125 5.140625 -5.507812 5.140625 -7.09375 L 5.140625 -28.125 C 5.140625 -29.3125 5.050781 -30.164062 4.875 -30.6875 C 4.707031 -31.21875 4.378906 -31.578125 3.890625 -31.765625 C 3.410156 -31.953125 2.660156 -32.078125 1.640625 -32.140625 L 1.640625 -33.078125 C 2.628906 -32.984375 3.984375 -32.9375 5.703125 -32.9375 C 8.566406 -32.9375 11.023438 -32.984375 13.078125 -33.078125 L 22.515625 -10.328125 L 31.109375 -32.9375 L 34.4375 -32.9375 C 37.613281 -32.9375 40.054688 -32.984375 41.765625 -33.078125 Z M 41.765625 -32.140625 "/></g></g></g><g fill="#ffffff" fill-opacity="1"><g transform="translate(161.406239, 296.409429)"><g><path d="M 18.546875 -33.734375 C 21.847656 -33.734375 24.734375 -33.0625 27.203125 -31.71875 C 29.679688 -30.382812 31.609375 -28.445312 32.984375 -25.90625 C 34.359375 -23.363281 35.046875 -20.332031 35.046875 -16.8125 C 35.046875 -13.394531 34.34375 -10.359375 32.9375 -7.703125 C 31.53125 -5.054688 29.570312 -3 27.0625 -1.53125 C 24.5625 -0.0703125 21.707031 0.65625 18.5 0.65625 C 15.195312 0.65625 12.304688 -0.0078125 9.828125 -1.34375 C 7.359375 -2.6875 5.4375 -4.628906 4.0625 -7.171875 C 2.695312 -9.710938 2.015625 -12.742188 2.015625 -16.265625 C 2.015625 -19.679688 2.710938 -22.710938 4.109375 -25.359375 C 5.515625 -28.015625 7.46875 -30.070312 9.96875 -31.53125 C 12.476562 -33 15.335938 -33.734375 18.546875 -33.734375 Z M 18.359375 -32.890625 C 16.648438 -32.890625 15.140625 -32.195312 13.828125 -30.8125 C 12.515625 -29.425781 11.507812 -27.484375 10.8125 -24.984375 C 10.113281 -22.492188 9.765625 -19.644531 9.765625 -16.4375 C 9.765625 -13.207031 10.160156 -10.359375 10.953125 -7.890625 C 11.742188 -5.429688 12.816406 -3.53125 14.171875 -2.1875 C 15.535156 -0.851562 17.039062 -0.1875 18.6875 -0.1875 C 20.394531 -0.1875 21.90625 -0.878906 23.21875 -2.265625 C 24.53125 -3.648438 25.535156 -5.585938 26.234375 -8.078125 C 26.929688 -10.566406 27.28125 -13.414062 27.28125 -16.625 C 27.28125 -19.863281 26.882812 -22.710938 26.09375 -25.171875 C 25.300781 -27.640625 24.226562 -29.539062 22.875 -30.875 C 21.519531 -32.21875 20.015625 -32.890625 18.359375 -32.890625 Z M 18.359375 -32.890625 "/></g></g></g><g fill="#ffffff" fill-opacity="1"><g transform="translate(198.454234, 296.409429)"><g><path d="M 13.265625 -33.6875 C 14.890625 -33.6875 16.179688 -33.53125 17.140625 -33.21875 C 18.109375 -32.90625 19.09375 -32.453125 20.09375 -31.859375 C 20.4375 -31.671875 20.738281 -31.515625 21 -31.390625 C 21.257812 -31.265625 21.484375 -31.203125 21.671875 -31.203125 C 21.953125 -31.203125 22.171875 -31.363281 22.328125 -31.6875 C 22.484375 -32.019531 22.609375 -32.546875 22.703125 -33.265625 L 23.78125 -33.265625 C 23.625 -31.179688 23.546875 -27.628906 23.546875 -22.609375 L 22.46875 -22.609375 C 22.34375 -24.296875 21.960938 -25.898438 21.328125 -27.421875 C 20.691406 -28.953125 19.785156 -30.191406 18.609375 -31.140625 C 17.441406 -32.085938 16.082031 -32.5625 14.53125 -32.5625 C 13 -32.5625 11.757812 -32.132812 10.8125 -31.28125 C 9.863281 -30.425781 9.390625 -29.265625 9.390625 -27.796875 C 9.390625 -26.703125 9.625 -25.75 10.09375 -24.9375 C 10.5625 -24.132812 11.210938 -23.394531 12.046875 -22.71875 C 12.890625 -22.050781 14.1875 -21.144531 15.9375 -20 L 17.421875 -18.96875 C 19.265625 -17.75 20.710938 -16.6875 21.765625 -15.78125 C 22.828125 -14.882812 23.691406 -13.835938 24.359375 -12.640625 C 25.035156 -11.441406 25.375 -10.046875 25.375 -8.453125 C 25.375 -6.460938 24.859375 -4.789062 23.828125 -3.4375 C 22.796875 -2.082031 21.398438 -1.0625 19.640625 -0.375 C 17.878906 0.3125 15.925781 0.65625 13.78125 0.65625 C 12.039062 0.65625 10.59375 0.5 9.4375 0.1875 C 8.28125 -0.125 7.222656 -0.546875 6.265625 -1.078125 C 5.578125 -1.515625 5.046875 -1.734375 4.671875 -1.734375 C 4.390625 -1.734375 4.171875 -1.566406 4.015625 -1.234375 C 3.859375 -0.910156 3.734375 -0.390625 3.640625 0.328125 L 2.5625 0.328125 C 2.6875 -1.628906 2.75 -5.832031 2.75 -12.28125 L 3.828125 -12.28125 C 4.046875 -8.789062 4.820312 -5.960938 6.15625 -3.796875 C 7.5 -1.640625 9.554688 -0.5625 12.328125 -0.5625 C 14.015625 -0.5625 15.398438 -1.007812 16.484375 -1.90625 C 17.578125 -2.8125 18.125 -4.109375 18.125 -5.796875 C 18.125 -7.535156 17.5625 -9.023438 16.4375 -10.265625 C 15.320312 -11.515625 13.550781 -12.921875 11.125 -14.484375 C 9.25 -15.703125 7.75 -16.757812 6.625 -17.65625 C 5.507812 -18.5625 4.59375 -19.628906 3.875 -20.859375 C 3.15625 -22.085938 2.796875 -23.515625 2.796875 -25.140625 C 2.796875 -27.003906 3.269531 -28.582031 4.21875 -29.875 C 5.175781 -31.164062 6.445312 -32.125 8.03125 -32.75 C 9.625 -33.375 11.367188 -33.6875 13.265625 -33.6875 Z M 13.265625 -33.6875 "/></g></g></g><g fill="#ffffff" fill-opacity="1"><g transform="translate(225.737994, 296.409429)"><g><path d="M 28.546875 -3.921875 C 28.953125 -2.890625 29.414062 -2.140625 29.9375 -1.671875 C 30.46875 -1.210938 30.984375 -0.96875 31.484375 -0.9375 L 31.484375 0 C 29.617188 -0.09375 27.253906 -0.140625 24.390625 -0.140625 C 21.210938 -0.140625 18.84375 -0.09375 17.28125 0 L 17.28125 -0.9375 C 18.46875 -1 19.3125 -1.144531 19.8125 -1.375 C 20.3125 -1.613281 20.5625 -2.023438 20.5625 -2.609375 C 20.5625 -3.171875 20.375 -3.921875 20 -4.859375 L 17.1875 -12.515625 L 7.015625 -12.515625 L 5.796875 -9.296875 C 4.921875 -7.054688 4.484375 -5.328125 4.484375 -4.109375 C 4.484375 -2.953125 4.832031 -2.148438 5.53125 -1.703125 C 6.238281 -1.253906 7.273438 -1 8.640625 -0.9375 L 8.640625 0 C 6.523438 -0.09375 4.59375 -0.140625 2.84375 -0.140625 C 1.414062 -0.140625 0.234375 -0.09375 -0.703125 0 L -0.703125 -0.9375 C 0.828125 -1.21875 2.164062 -2.851562 3.3125 -5.84375 L 13.96875 -33.171875 C 14.3125 -33.140625 14.859375 -33.125 15.609375 -33.125 C 16.347656 -33.125 16.875 -33.140625 17.1875 -33.171875 Z M 16.859375 -13.453125 L 12.234375 -26.0625 L 7.375 -13.453125 Z M 16.859375 -13.453125 "/></g></g></g></svg>